<?xml version="1.0" standalone="no"?>
  <!DOCTYPE svg PUBLIC "-//W3C//DTD SVG 1.1//EN" "http://www.w3.org/Graphics/SVG/1.1/DTD/svg11.dtd" >
  <svg>
  <metadata>
  Created by font-carrier
  </metadata>
  <defs>
  <font id="RobotoSlab-SemiBold" horiz-adv-x="2543" vert-adv-y="2543" >
    <font-face
      
      font-family="Roboto Slab SemiBold"
      
      font-weight="400"
      
      font-stretch="normal"
      
      units-per-em="2048"
      
      ascent="2146"
      
      descent="-555"
      
    />
      <missing-glyph />

      

      
      <glyph glyph-name="uni41" unicode="&#x41;" d="M47 0L47 164L152 179L625 1456L896 1456L1365 179L1469 164L1469 0L990 0L990 164L1093 183L1022 397L495 397L424 183L526 164L526 0L47 0M562 602L955 602L776 1120L762 1162L756 1162L741 1118L562 602Z"  horiz-adv-x="1516" vert-adv-y="2048"  />

      
      <glyph glyph-name="unic1" unicode="&#xc1;" d="M47 0L47 164L152 179L625 1456L896 1456L1365 179L1469 164L1469 0L990 0L990 164L1093 183L1022 397L495 397L424 183L526 164L526 0L47 0M562 602L955 602L776 1120L762 1162L756 1162L741 1118L562 602M597 1572L793 1844L1085 1844L1087 1838L813 1572L605 1572L597 1572Z"  horiz-adv-x="1516" vert-adv-y="2048"  />

      
      <glyph glyph-name="uni0102" unicode="&#x0102;" d="M47 0L47 164L152 179L625 1456L896 1456L1365 179L1469 164L1469 0L990 0L990 164L1093 183L1022 397L495 397L424 183L526 164L526 0L47 0M562 602L955 602L776 1120L762 1162L756 1162L741 1118L562 602M761 1549Q603 1549 510.50 1630Q418 1711 421 1838L423 1844L611 1844Q611 1783 647 1743.50Q683 1704 761 1704Q836 1704 872.50 1743Q909 1782 909 1844L1097 1844L1099 1838Q1101 1711 1009.50 1630Q918 1549 761 1549Z"  horiz-adv-x="1516" vert-adv-y="2048"  />

      
      <glyph glyph-name="uni1EAE" unicode="&#x1EAE;" d="M47 0L47 164L152 179L625 1456L896 1456L1365 179L1469 164L1469 0L990 0L990 164L1093 183L1022 397L495 397L424 183L526 164L526 0L47 0M562 602L955 602L776 1120L762 1162L756 1162L741 1118L562 602M756 1516Q598 1516 505.50 1589Q413 1662 416 1778L418 1784L602 1784Q602 1731 639 1696.50Q676 1662 756 1662Q833 1662 870 1696.50Q907 1731 907 1784L1092 1784L1094 1778Q1097 1662 1005.50 1589Q914 1516 756 1516M658 1795L773 2022L1010 2022L1012 2016L816 1795L666 1795L658 1795Z"  horiz-adv-x="1516" vert-adv-y="2048"  />

      
      <glyph glyph-name="uni1EB6" unicode="&#x1EB6;" d="M47 0L47 164L152 179L625 1456L896 1456L1365 179L1469 164L1469 0L990 0L990 164L1093 183L1022 397L495 397L424 183L526 164L526 0L47 0M562 602L955 602L776 1120L762 1162L756 1162L741 1118L562 602M761 1549Q603 1549 510.50 1630Q418 1711 421 1838L423 1844L611 1844Q611 1783 647 1743.50Q683 1704 761 1704Q836 1704 872.50 1743Q909 1782 909 1844L1097 1844L1099 1838Q1101 1711 1009.50 1630Q918 1549 761 1549M617-407L617-166L899-166L899-407L617-407Z"  horiz-adv-x="1516" vert-adv-y="2048"  />

      
      <glyph glyph-name="uni1EB0" unicode="&#x1EB0;" d="M47 0L47 164L152 179L625 1456L896 1456L1365 179L1469 164L1469 0L990 0L990 164L1093 183L1022 397L495 397L424 183L526 164L526 0L47 0M562 602L955 602L776 1120L762 1162L756 1162L741 1118L562 602M765 1516Q607 1516 515.50 1589Q424 1662 426 1778L428 1784L613 1784Q613 1731 650.50 1696.50Q688 1662 765 1662Q844 1662 881 1696.50Q918 1731 918 1784L1102 1784L1104 1778Q1108 1662 1016 1589Q924 1516 765 1516M862 1795L854 1795L705 1795L509 2016L511 2022L748 2022L862 1795Z"  horiz-adv-x="1516" vert-adv-y="2048"  />

      
      <glyph glyph-name="uni1EB2" unicode="&#x1EB2;" d="M47 0L47 164L152 179L625 1456L896 1456L1365 179L1469 164L1469 0L990 0L990 164L1093 183L1022 397L495 397L424 183L526 164L526 0L47 0M562 602L955 602L776 1120L762 1162L756 1162L741 1118L562 602M760 1516Q602 1516 509.50 1589Q417 1662 420 1778L422 1784L607 1784Q607 1731 644 1696.50Q681 1662 760 1662Q837 1662 873.50 1696.50Q910 1731 910 1784L1096 1784L1098 1778Q1101 1662 1009.50 1589Q918 1516 760 1516M665 1778L653 1893Q725 1896 756.50 1908.50Q788 1921 788 1949Q788 1981 751 1994.50Q714 2008 650 2008L657 2118Q815 2118 899.50 2076.50Q984 2035 984 1962Q984 1906 942 1875Q900 1844 838 1836L837 1778L665 1778Z"  horiz-adv-x="1516" vert-adv-y="2048"  />

      
      <glyph glyph-name="uni1EB4" unicode="&#x1EB4;" d="M47 0L47 164L152 179L625 1456L896 1456L1365 179L1469 164L1469 0L990 0L990 164L1093 183L1022 397L495 397L424 183L526 164L526 0L47 0M562 602L955 602L776 1120L762 1162L756 1162L741 1118L562 602M759 1516Q601 1516 508.50 1589Q416 1662 419 1778L421 1784L606 1784Q606 1731 643 1696.50Q680 1662 759 1662Q836 1662 872.50 1696.50Q909 1731 909 1784L1095 1784L1097 1778Q1100 1662 1008.50 1589Q917 1516 759 1516M556 1836L422 1871Q422 1932 449.50 1983.50Q477 2035 523.50 2066Q570 2097 626 2097Q668 2097 715.50 2075Q763 2053 807.50 2031Q852 2009 884 2009Q921 2009 944.50 2038.50Q968 2068 968 2110L1101 2073Q1101 2011 1073 1960Q1045 1909 999 1878.50Q953 1848 896 1848Q850 1848 802.50 1870Q755 1892 713 1914Q671 1936 639 1936Q601 1936 578.50 1906.50Q556 1877 556 1836Z"  horiz-adv-x="1516" vert-adv-y="2048"  />

      
      <glyph glyph-name="unic2" unicode="&#xc2;" d="M47 0L47 164L152 179L625 1456L896 1456L1365 179L1469 164L1469 0L990 0L990 164L1093 183L1022 397L495 397L424 183L526 164L526 0L47 0M562 602L955 602L776 1120L762 1162L756 1162L741 1118L562 602M410 1576L410 1602L663 1844L858 1844L1110 1600L1110 1576L896 1576L760 1721L621 1576L410 1576Z"  horiz-adv-x="1516" vert-adv-y="2048"  />

      
      <glyph glyph-name="uni1EA4" unicode="&#x1EA4;" d="M47 0L47 164L152 179L625 1456L896 1456L1365 179L1469 164L1469 0L990 0L990 164L1093 183L1022 397L495 397L424 183L526 164L526 0L47 0M562 602L955 602L776 1120L762 1162L756 1162L741 1118L562 602M408 1537L408 1563L661 1786L861 1786L1113 1560L1113 1537L895 1537L760 1668L622 1537L408 1537M942 1795L1056 2022L1293 2022L1295 2016L1099 1795L950 1795L942 1795Z"  horiz-adv-x="1516" vert-adv-y="2048"  />

      
      <glyph glyph-name="uni1EAC" unicode="&#x1EAC;" d="M47 0L47 164L152 179L625 1456L896 1456L1365 179L1469 164L1469 0L990 0L990 164L1093 183L1022 397L495 397L424 183L526 164L526 0L47 0M562 602L955 602L776 1120L762 1162L756 1162L741 1118L562 602M410 1576L410 1602L663 1844L858 1844L1110 1600L1110 1576L896 1576L760 1721L621 1576L410 1576M617-407L617-166L899-166L899-407L617-407Z"  horiz-adv-x="1516" vert-adv-y="2048"  />

      
      <glyph glyph-name="uni1EA6" unicode="&#x1EA6;" d="M47 0L47 164L152 179L625 1456L896 1456L1365 179L1469 164L1469 0L990 0L990 164L1093 183L1022 397L495 397L424 183L526 164L526 0L47 0M562 602L955 602L776 1120L762 1162L756 1162L741 1118L562 602M1113 1537L899 1537L761 1668L626 1537L408 1537L408 1560L660 1786L860 1786L1113 1563L1113 1537M580 1795L572 1795L422 1795L226 2016L228 2022L465 2022L580 1795Z"  horiz-adv-x="1516" vert-adv-y="2048"  />

      
      <glyph glyph-name="uni1EA8" unicode="&#x1EA8;" d="M47 0L47 164L152 179L625 1456L896 1456L1365 179L1469 164L1469 0L990 0L990 164L1093 183L1022 397L495 397L424 183L526 164L526 0L47 0M562 602L955 602L776 1120L762 1162L756 1162L741 1118L562 602M408 1537L408 1563L661 1786L861 1786L1113 1560L1113 1537L895 1537L760 1668L622 1537L408 1537M983 1744L971 1859Q1039 1862 1068.50 1874.50Q1098 1887 1098 1915Q1098 1947 1063.50 1960.50Q1029 1974 968 1974L975 2084Q1129 2084 1211 2042.50Q1293 2001 1293 1928Q1293 1872 1252.50 1841Q1212 1810 1152 1802L1151 1744L983 1744Z"  horiz-adv-x="1516" vert-adv-y="2048"  />

      
      <glyph glyph-name="uni1EAA" unicode="&#x1EAA;" d="M47 0L47 164L152 179L625 1456L896 1456L1365 179L1469 164L1469 0L990 0L990 164L1093 183L1022 397L495 397L424 183L526 164L526 0L47 0M562 602L955 602L776 1120L762 1162L756 1162L741 1118L562 602M554 1836L420 1871Q420 1932 447.50 1983.50Q475 2035 521.50 2066Q568 2097 623 2097Q666 2097 711 2075Q756 2053 798.50 2031Q841 2009 873 2009Q911 2009 933.50 2038.50Q956 2068 956 2110L1090 2073Q1090 2011 1062 1960Q1034 1909 988 1878.50Q942 1848 886 1848Q839 1848 794 1870Q749 1892 708.50 1914Q668 1936 636 1936Q599 1936 576.50 1906.50Q554 1877 554 1836M408 1537L408 1563L661 1786L861 1786L1113 1560L1113 1537L895 1537L760 1668L622 1537L408 1537Z"  horiz-adv-x="1516" vert-adv-y="2048"  />

      
      <glyph glyph-name="unic4" unicode="&#xc4;" d="M47 0L47 164L152 179L625 1456L896 1456L1365 179L1469 164L1469 0L990 0L990 164L1093 183L1022 397L495 397L424 183L526 164L526 0L47 0M562 602L955 602L776 1120L762 1162L756 1162L741 1118L562 602M850 1603L850 1844L1116 1844L1116 1603L850 1603M405 1603L405 1844L670 1844L670 1603L405 1603Z"  horiz-adv-x="1516" vert-adv-y="2048"  />

      
      <glyph glyph-name="uni1EA0" unicode="&#x1EA0;" d="M47 0L47 164L152 179L625 1456L896 1456L1365 179L1469 164L1469 0L990 0L990 164L1093 183L1022 397L495 397L424 183L526 164L526 0L47 0M562 602L955 602L776 1120L762 1162L756 1162L741 1118L562 602M617-407L617-166L899-166L899-407L617-407Z"  horiz-adv-x="1516" vert-adv-y="2048"  />

      
      <glyph glyph-name="unic0" unicode="&#xc0;" d="M47 0L47 164L152 179L625 1456L896 1456L1365 179L1469 164L1469 0L990 0L990 164L1093 183L1022 397L495 397L424 183L526 164L526 0L47 0M562 602L955 602L776 1120L762 1162L756 1162L741 1118L562 602M924 1572L916 1572L708 1572L434 1838L436 1844L728 1844L924 1572Z"  horiz-adv-x="1516" vert-adv-y="2048"  />

      
      <glyph glyph-name="uni1EA2" unicode="&#x1EA2;" d="M47 0L47 164L152 179L625 1456L896 1456L1365 179L1469 164L1469 0L990 0L990 164L1093 183L1022 397L495 397L424 183L526 164L526 0L47 0M562 602L955 602L776 1120L762 1162L756 1162L741 1118L562 602M634 1538L622 1677Q696 1680 728 1695Q760 1710 760 1744Q760 1779 721 1795.50Q682 1812 614 1812L621 1939Q798 1939 892.50 1888Q987 1837 987 1749Q987 1684 943.50 1648Q900 1612 837 1603L836 1538L634 1538Z"  horiz-adv-x="1516" vert-adv-y="2048"  />

      
      <glyph glyph-name="uni0100" unicode="&#x0100;" d="M47 0L47 164L152 179L625 1456L896 1456L1365 179L1469 164L1469 0L990 0L990 164L1093 183L1022 397L495 397L424 183L526 164L526 0L47 0M562 602L955 602L776 1120L762 1162L756 1162L741 1118L562 602M395 1604L395 1774L1124 1774L1124 1604L395 1604Z"  horiz-adv-x="1516" vert-adv-y="2048"  />

      
      <glyph glyph-name="uni0104" unicode="&#x0104;" d="M47 0L47 164L152 179L625 1456L896 1456L1365 179L1469 164L1469 0L990 0L990 164L1093 183L1022 397L495 397L424 183L526 164L526 0L47 0M562 602L955 602L776 1120L762 1162L756 1162L741 1118L562 602M1368-426Q1257-426 1188-369Q1119-312 1119-209Q1119-134 1174-62.50Q1229 9 1355 59L1469 0Q1397-47 1362.50-88.50Q1328-130 1328-177Q1328-215 1349-235Q1370-255 1417-255Q1441-255 1462-250Q1483-245 1503-237L1538-385Q1503-402 1462-414Q1421-426 1368-426Z"  horiz-adv-x="1516" vert-adv-y="2048"  />

      
      <glyph glyph-name="unic5" unicode="&#xc5;" d="M47 0L47 164L152 179L625 1456L896 1456L1365 179L1469 164L1469 0L990 0L990 164L1093 183L1022 397L495 397L424 183L526 164L526 0L47 0M562 602L955 602L776 1120L762 1162L756 1162L741 1118L562 602M762 1511Q665 1511 599 1570Q533 1629 533 1722Q533 1812 599.50 1874Q666 1936 762 1936Q857 1936 922 1874Q987 1812 987 1722Q987 1629 922 1570Q857 1511 762 1511M762 1623Q803 1623 830 1650Q857 1677 857 1722Q857 1766 830 1794Q803 1822 762 1822Q720 1822 691.50 1794Q663 1766 663 1722Q663 1679 691.50 1651Q720 1623 762 1623Z"  horiz-adv-x="1516" vert-adv-y="2048"  />

      
      <glyph glyph-name="uni01FA" unicode="&#x01FA;" d="M47 0L47 164L152 179L625 1456L896 1456L1365 179L1469 164L1469 0L990 0L990 164L1093 183L1022 397L495 397L424 183L526 164L526 0L47 0M562 602L955 602L776 1120L762 1162L756 1162L741 1118L562 602M762 1346Q666 1346 601 1403.50Q536 1461 536 1551Q536 1640 601.50 1700Q667 1760 762 1760Q856 1760 920 1700Q984 1640 984 1551Q984 1461 920 1403.50Q856 1346 762 1346M762 1458Q802 1458 828 1484Q854 1510 854 1551Q854 1593 828.50 1620Q803 1647 762 1647Q721 1647 693.50 1620Q666 1593 666 1551Q666 1511 693.50 1484.50Q721 1458 762 1458M666 1815L791 2031L1031 2031L1033 2025L834 1815L674 1815L666 1815Z"  horiz-adv-x="1516" vert-adv-y="2048"  />

      
      <glyph glyph-name="uni1E00" unicode="&#x1E00;" d="M47 0L47 164L152 179L625 1456L896 1456L1365 179L1469 164L1469 0L990 0L990 164L1093 183L1022 397L495 397L424 183L526 164L526 0L47 0M562 602L955 602L776 1120L762 1162L756 1162L741 1118L562 602M760-520Q663-520 597-461Q531-402 531-310Q531-219 597.50-157.50Q664-96 760-96Q855-96 920-157.50Q985-219 985-310Q985-402 920-461Q855-520 760-520M760-408Q801-408 828-381Q855-354 855-310Q855-266 828-237.50Q801-209 760-209Q718-209 689.50-237.50Q661-266 661-310Q661-353 689.50-380.50Q718-408 760-408Z"  horiz-adv-x="1516" vert-adv-y="2048"  />

      
      <glyph glyph-name="unic3" unicode="&#xc3;" d="M47 0L47 164L152 179L625 1456L896 1456L1365 179L1469 164L1469 0L990 0L990 164L1093 183L1022 397L495 397L424 183L526 164L526 0L47 0M562 602L955 602L776 1120L762 1162L756 1162L741 1118L562 602M533 1572L391 1608Q391 1675 422 1731Q453 1787 504 1821Q555 1855 615 1855Q663 1855 714.50 1831Q766 1807 813 1782.50Q860 1758 894 1758Q935 1759 960.50 1790Q986 1821 986 1868L1128 1829Q1128 1761 1097.50 1705Q1067 1649 1016 1616Q965 1583 904 1583Q852 1583 800.50 1607.50Q749 1632 703.50 1656.50Q658 1681 624 1681Q583 1681 558 1649Q533 1617 533 1572Z"  horiz-adv-x="1516" vert-adv-y="2048"  />

      
      <glyph glyph-name="unic6" unicode="&#xc6;" d="M63 0L63 164L202 184L922 1456L1943 1456L1943 1097L1731 1097L1718 1244L1312 1244L1329 856L1861 856L1861 644L1338 644L1356 211L1781 211L1794 358L2005 358L2005 0L934 0L934 164L1085 192L1079 353L608 353L514 178L599 164L599 0L63 0M721 571L1069 571L1044 1158L1039 1159L1029 1139L721 571Z"  horiz-adv-x="2093" vert-adv-y="2048"  />

      
      <glyph glyph-name="uni01FC" unicode="&#x01FC;" d="M63 0L63 164L202 184L922 1456L1943 1456L1943 1097L1731 1097L1718 1244L1312 1244L1329 856L1861 856L1861 644L1338 644L1356 211L1781 211L1794 358L2005 358L2005 0L934 0L934 164L1085 192L1079 353L608 353L514 178L599 164L599 0L63 0M721 571L1069 571L1044 1158L1039 1159L1029 1139L721 571M990 1572L1186 1844L1478 1844L1480 1838L1206 1572L998 1572L990 1572Z"  horiz-adv-x="2093" vert-adv-y="2048"  />

      
      <glyph glyph-name="uni42" unicode="&#x42;" d="M61 0L61 164L218 194L218 1261L61 1291L61 1456L218 1456L704 1456Q955 1456 1096 1356.50Q1237 1257 1237 1058Q1237 958 1181.50 879Q1126 800 1025 761Q1112 742 1171 693Q1230 644 1260.50 574Q1291 504 1291 421Q1291 214 1154.50 107Q1018 0 772 0L61 0M490 209L772 209Q892 209 955.50 263Q1019 317 1019 421Q1019 495 995.50 546.50Q972 598 922.50 625Q873 652 796 652L490 652L490 209M490 844L723 844Q838 844 901.50 895Q965 946 965 1041Q965 1146 899 1196Q833 1246 704 1246L490 1246L490 844Z"  horiz-adv-x="1340" vert-adv-y="2048"  />

      
      <glyph glyph-name="uni43" unicode="&#x43;" d="M747-21Q533-21 378.50 69Q224 159 141 322.50Q58 486 58 706L58 749Q58 961 139 1125Q220 1289 371 1383Q522 1477 731 1477Q878 1477 1005 1434.50Q1132 1392 1229 1310L1229 966L1024 966L996 1189Q963 1213 923.50 1230Q884 1247 837.50 1256Q791 1265 737 1265Q609 1265 518 1201.50Q427 1138 378.50 1023Q330 908 330 751L330 706Q330 547 381 431Q432 315 526.50 252.50Q621 190 752 190Q817 190 881 204.50Q945 219 995 243L1024 448L1227 448L1227 107Q1143 52 1019 15.50Q895-21 747-21Z"  horiz-adv-x="1314" vert-adv-y="2048"  />

      
      <glyph glyph-name="uni0106" unicode="&#x0106;" d="M747-21Q533-21 378.50 69Q224 159 141 322.50Q58 486 58 706L58 749Q58 961 139 1125Q220 1289 371 1383Q522 1477 731 1477Q878 1477 1005 1434.50Q1132 1392 1229 1310L1229 966L1024 966L996 1189Q963 1213 923.50 1230Q884 1247 837.50 1256Q791 1265 737 1265Q609 1265 518 1201.50Q427 1138 378.50 1023Q330 908 330 751L330 706Q330 547 381 431Q432 315 526.50 252.50Q621 190 752 190Q817 190 881 204.50Q945 219 995 243L1024 448L1227 448L1227 107Q1143 52 1019 15.50Q895-21 747-21M553 1572L749 1844L1041 1844L1043 1838L769 1572L561 1572L553 1572Z"  horiz-adv-x="1314" vert-adv-y="2048"  />

      
      <glyph glyph-name="uni010C" unicode="&#x010C;" d="M747-21Q533-21 378.50 69Q224 159 141 322.50Q58 486 58 706L58 749Q58 961 139 1125Q220 1289 371 1383Q522 1477 731 1477Q878 1477 1005 1434.50Q1132 1392 1229 1310L1229 966L1024 966L996 1189Q963 1213 923.50 1230Q884 1247 837.50 1256Q791 1265 737 1265Q609 1265 518 1201.50Q427 1138 378.50 1023Q330 908 330 751L330 706Q330 547 381 431Q432 315 526.50 252.50Q621 190 752 190Q817 190 881 204.50Q945 219 995 243L1024 448L1227 448L1227 107Q1143 52 1019 15.50Q895-21 747-21M1066 1844L1066 1818L813 1576L618 1576L366 1820L366 1844L580 1844L716 1699L855 1844L1066 1844Z"  horiz-adv-x="1314" vert-adv-y="2048"  />

      
      <glyph glyph-name="unic7" unicode="&#xc7;" d="M747-21Q533-21 378.50 69Q224 159 141 322.50Q58 486 58 706L58 749Q58 961 139 1125Q220 1289 371 1383Q522 1477 731 1477Q878 1477 1005 1434.50Q1132 1392 1229 1310L1229 966L1024 966L996 1189Q963 1213 923.50 1230Q884 1247 837.50 1256Q791 1265 737 1265Q609 1265 518 1201.50Q427 1138 378.50 1023Q330 908 330 751L330 706Q330 547 381 431Q432 315 526.50 252.50Q621 190 752 190Q817 190 881 204.50Q945 219 995 243L1024 448L1227 448L1227 107Q1143 52 1019 15.50Q895-21 747-21M603-454L596-305Q659-305 696-284.50Q733-264 733-222Q733-179 697.50-162Q662-145 584-140L619 21L819 21L804-56Q871-67 915.50-107Q960-147 960-225Q960-329 867-391.50Q774-454 603-454Z"  horiz-adv-x="1314" vert-adv-y="2048"  />

      
      <glyph glyph-name="uni0108" unicode="&#x0108;" d="M747-21Q533-21 378.50 69Q224 159 141 322.50Q58 486 58 706L58 749Q58 961 139 1125Q220 1289 371 1383Q522 1477 731 1477Q878 1477 1005 1434.50Q1132 1392 1229 1310L1229 966L1024 966L996 1189Q963 1213 923.50 1230Q884 1247 837.50 1256Q791 1265 737 1265Q609 1265 518 1201.50Q427 1138 378.50 1023Q330 908 330 751L330 706Q330 547 381 431Q432 315 526.50 252.50Q621 190 752 190Q817 190 881 204.50Q945 219 995 243L1024 448L1227 448L1227 107Q1143 52 1019 15.50Q895-21 747-21M366 1576L366 1602L619 1844L814 1844L1066 1600L1066 1576L852 1576L716 1721L577 1576L366 1576Z"  horiz-adv-x="1314" vert-adv-y="2048"  />

      
      <glyph glyph-name="uni010A" unicode="&#x010A;" d="M747-21Q533-21 378.50 69Q224 159 141 322.50Q58 486 58 706L58 749Q58 961 139 1125Q220 1289 371 1383Q522 1477 731 1477Q878 1477 1005 1434.50Q1132 1392 1229 1310L1229 966L1024 966L996 1189Q963 1213 923.50 1230Q884 1247 837.50 1256Q791 1265 737 1265Q609 1265 518 1201.50Q427 1138 378.50 1023Q330 908 330 751L330 706Q330 547 381 431Q432 315 526.50 252.50Q621 190 752 190Q817 190 881 204.50Q945 219 995 243L1024 448L1227 448L1227 107Q1143 52 1019 15.50Q895-21 747-21M575 1603L575 1844L857 1844L857 1603L575 1603Z"  horiz-adv-x="1314" vert-adv-y="2048"  />

      
      <glyph glyph-name="uni44" unicode="&#x44;" d="M61 0L61 164L219 197L219 1258L61 1291L61 1456L219 1456L686 1456Q881 1456 1028.50 1364Q1176 1272 1259 1111Q1342 950 1342 741L1342 714Q1342 508 1260.50 346.50Q1179 185 1032.50 92.50Q886 0 691 0L61 0M491 209L677 209Q802 209 889 275Q976 341 1022.50 455Q1069 569 1069 714L1069 743Q1069 890 1022.50 1003.50Q976 1117 889 1181.50Q802 1246 677 1246L491 1246L491 209Z"  horiz-adv-x="1412" vert-adv-y="2048"  />

      
      <glyph glyph-name="unid0" unicode="&#xd0;" d="M61 0L61 164L219 197L219 1258L61 1291L61 1456L219 1456L686 1456Q881 1456 1028.50 1364Q1176 1272 1259 1111Q1342 950 1342 741L1342 714Q1342 508 1260.50 346.50Q1179 185 1032.50 92.50Q886 0 691 0L61 0M491 209L677 209Q802 209 889 275Q976 341 1022.50 455Q1069 569 1069 714L1069 743Q1069 890 1022.50 1003.50Q976 1117 889 1181.50Q802 1246 677 1246L491 1246L491 209M53 658L53 813L700 813L700 658L53 658Z"  horiz-adv-x="1412" vert-adv-y="2048"  />

      
      <glyph glyph-name="uni010E" unicode="&#x010E;" d="M61 0L61 164L219 197L219 1258L61 1291L61 1456L219 1456L686 1456Q881 1456 1028.50 1364Q1176 1272 1259 1111Q1342 950 1342 741L1342 714Q1342 508 1260.50 346.50Q1179 185 1032.50 92.50Q886 0 691 0L61 0M491 209L677 209Q802 209 889 275Q976 341 1022.50 455Q1069 569 1069 714L1069 743Q1069 890 1022.50 1003.50Q976 1117 889 1181.50Q802 1246 677 1246L491 1246L491 209M1034 1844L1034 1818L781 1576L586 1576L334 1820L334 1844L548 1844L684 1699L823 1844L1034 1844Z"  horiz-adv-x="1412" vert-adv-y="2048"  />

      
      <glyph glyph-name="uni0110" unicode="&#x0110;" d="M61 0L61 164L219 197L219 1258L61 1291L61 1456L219 1456L686 1456Q881 1456 1028.50 1364Q1176 1272 1259 1111Q1342 950 1342 741L1342 714Q1342 508 1260.50 346.50Q1179 185 1032.50 92.50Q886 0 691 0L61 0M491 209L677 209Q802 209 889 275Q976 341 1022.50 455Q1069 569 1069 714L1069 743Q1069 890 1022.50 1003.50Q976 1117 889 1181.50Q802 1246 677 1246L491 1246L491 209M53 658L53 813L700 813L700 658L53 658Z"  horiz-adv-x="1412" vert-adv-y="2048"  />

      
      <glyph glyph-name="uni45" unicode="&#x45;" d="M61 0L61 164L218 194L218 1261L61 1291L61 1456L1180 1456L1180 1072L970 1072L955 1247L490 1247L490 858L992 858L992 647L490 647L490 208L981 208L996 387L1204 387L1204 0L61 0Z"  horiz-adv-x="1307" vert-adv-y="2048"  />

      
      <glyph glyph-name="unic9" unicode="&#xc9;" d="M61 0L61 164L218 194L218 1261L61 1291L61 1456L1180 1456L1180 1072L970 1072L955 1247L490 1247L490 858L992 858L992 647L490 647L490 208L981 208L996 387L1204 387L1204 0L61 0M491 1572L687 1844L979 1844L981 1838L707 1572L499 1572L491 1572Z"  horiz-adv-x="1307" vert-adv-y="2048"  />

      
      <glyph glyph-name="uni0114" unicode="&#x0114;" d="M61 0L61 164L218 194L218 1261L61 1291L61 1456L1180 1456L1180 1072L970 1072L955 1247L490 1247L490 858L992 858L992 647L490 647L490 208L981 208L996 387L1204 387L1204 0L61 0M655 1549Q497 1549 404.50 1630Q312 1711 315 1838L317 1844L505 1844Q505 1783 541 1743.50Q577 1704 655 1704Q730 1704 766.50 1743Q803 1782 803 1844L991 1844L993 1838Q995 1711 903.50 1630Q812 1549 655 1549Z"  horiz-adv-x="1307" vert-adv-y="2048"  />

      
      <glyph glyph-name="uni011A" unicode="&#x011A;" d="M61 0L61 164L218 194L218 1261L61 1291L61 1456L1180 1456L1180 1072L970 1072L955 1247L490 1247L490 858L992 858L992 647L490 647L490 208L981 208L996 387L1204 387L1204 0L61 0M1004 1844L1004 1818L751 1576L556 1576L304 1820L304 1844L518 1844L654 1699L793 1844L1004 1844Z"  horiz-adv-x="1307" vert-adv-y="2048"  />

      
      <glyph glyph-name="unica" unicode="&#xca;" d="M61 0L61 164L218 194L218 1261L61 1291L61 1456L1180 1456L1180 1072L970 1072L955 1247L490 1247L490 858L992 858L992 647L490 647L490 208L981 208L996 387L1204 387L1204 0L61 0M304 1576L304 1602L557 1844L752 1844L1004 1600L1004 1576L790 1576L654 1721L515 1576L304 1576Z"  horiz-adv-x="1307" vert-adv-y="2048"  />

      
      <glyph glyph-name="uni1EBE" unicode="&#x1EBE;" d="M61 0L61 164L218 194L218 1261L61 1291L61 1456L1180 1456L1180 1072L970 1072L955 1247L490 1247L490 858L992 858L992 647L490 647L490 208L981 208L996 387L1204 387L1204 0L61 0M302 1537L302 1563L555 1786L755 1786L1007 1560L1007 1537L789 1537L654 1668L516 1537L302 1537M836 1795L950 2022L1187 2022L1189 2016L993 1795L844 1795L836 1795Z"  horiz-adv-x="1307" vert-adv-y="2048"  />

      
      <glyph glyph-name="uni1EC6" unicode="&#x1EC6;" d="M61 0L61 164L218 194L218 1261L61 1291L61 1456L1180 1456L1180 1072L970 1072L955 1247L490 1247L490 858L992 858L992 647L490 647L490 208L981 208L996 387L1204 387L1204 0L61 0M304 1576L304 1602L557 1844L752 1844L1004 1600L1004 1576L790 1576L654 1721L515 1576L304 1576M512-407L512-166L794-166L794-407L512-407Z"  horiz-adv-x="1307" vert-adv-y="2048"  />

      
      <glyph glyph-name="uni1EC0" unicode="&#x1EC0;" d="M61 0L61 164L218 194L218 1261L61 1291L61 1456L1180 1456L1180 1072L970 1072L955 1247L490 1247L490 858L992 858L992 647L490 647L490 208L981 208L996 387L1204 387L1204 0L61 0M1006 1537L792 1537L654 1668L519 1537L301 1537L301 1560L553 1786L753 1786L1006 1563L1006 1537M473 1795L465 1795L315 1795L119 2016L121 2022L358 2022L473 1795Z"  horiz-adv-x="1307" vert-adv-y="2048"  />

      
      <glyph glyph-name="uni1EC2" unicode="&#x1EC2;" d="M61 0L61 164L218 194L218 1261L61 1291L61 1456L1180 1456L1180 1072L970 1072L955 1247L490 1247L490 858L992 858L992 647L490 647L490 208L981 208L996 387L1204 387L1204 0L61 0M302 1537L302 1563L555 1786L755 1786L1007 1560L1007 1537L789 1537L654 1668L516 1537L302 1537M877 1744L865 1859Q933 1862 962.50 1874.50Q992 1887 992 1915Q992 1947 957.50 1960.50Q923 1974 862 1974L869 2084Q1023 2084 1105 2042.50Q1187 2001 1187 1928Q1187 1872 1146.50 1841Q1106 1810 1046 1802L1045 1744L877 1744Z"  horiz-adv-x="1307" vert-adv-y="2048"  />

      
      <glyph glyph-name="uni1EC4" unicode="&#x1EC4;" d="M61 0L61 164L218 194L218 1261L61 1291L61 1456L1180 1456L1180 1072L970 1072L955 1247L490 1247L490 858L992 858L992 647L490 647L490 208L981 208L996 387L1204 387L1204 0L61 0M448 1836L314 1871Q314 1932 341.50 1983.50Q369 2035 415.50 2066Q462 2097 517 2097Q560 2097 605 2075Q650 2053 692.50 2031Q735 2009 767 2009Q805 2009 827.50 2038.50Q850 2068 850 2110L984 2073Q984 2011 956 1960Q928 1909 882 1878.50Q836 1848 780 1848Q733 1848 688 1870Q643 1892 602.50 1914Q562 1936 530 1936Q493 1936 470.50 1906.50Q448 1877 448 1836M302 1537L302 1563L555 1786L755 1786L1007 1560L1007 1537L789 1537L654 1668L516 1537L302 1537Z"  horiz-adv-x="1307" vert-adv-y="2048"  />

      
      <glyph glyph-name="unicb" unicode="&#xcb;" d="M61 0L61 164L218 194L218 1261L61 1291L61 1456L1180 1456L1180 1072L970 1072L955 1247L490 1247L490 858L992 858L992 647L490 647L490 208L981 208L996 387L1204 387L1204 0L61 0M744 1603L744 1844L1010 1844L1010 1603L744 1603M299 1603L299 1844L564 1844L564 1603L299 1603Z"  horiz-adv-x="1307" vert-adv-y="2048"  />

      
      <glyph glyph-name="uni0116" unicode="&#x0116;" d="M61 0L61 164L218 194L218 1261L61 1291L61 1456L1180 1456L1180 1072L970 1072L955 1247L490 1247L490 858L992 858L992 647L490 647L490 208L981 208L996 387L1204 387L1204 0L61 0M512 1603L512 1844L794 1844L794 1603L512 1603Z"  horiz-adv-x="1307" vert-adv-y="2048"  />

      
      <glyph glyph-name="uni1EB8" unicode="&#x1EB8;" d="M61 0L61 164L218 194L218 1261L61 1291L61 1456L1180 1456L1180 1072L970 1072L955 1247L490 1247L490 858L992 858L992 647L490 647L490 208L981 208L996 387L1204 387L1204 0L61 0M512-407L512-166L794-166L794-407L512-407Z"  horiz-adv-x="1307" vert-adv-y="2048"  />

      
      <glyph glyph-name="unic8" unicode="&#xc8;" d="M61 0L61 164L218 194L218 1261L61 1291L61 1456L1180 1456L1180 1072L970 1072L955 1247L490 1247L490 858L992 858L992 647L490 647L490 208L981 208L996 387L1204 387L1204 0L61 0M817 1572L809 1572L601 1572L327 1838L329 1844L621 1844L817 1572Z"  horiz-adv-x="1307" vert-adv-y="2048"  />

      
      <glyph glyph-name="uni1EBA" unicode="&#x1EBA;" d="M61 0L61 164L218 194L218 1261L61 1291L61 1456L1180 1456L1180 1072L970 1072L955 1247L490 1247L490 858L992 858L992 647L490 647L490 208L981 208L996 387L1204 387L1204 0L61 0M528 1538L516 1677Q590 1680 622 1695Q654 1710 654 1744Q654 1779 615 1795.50Q576 1812 508 1812L515 1939Q692 1939 786.50 1888Q881 1837 881 1749Q881 1684 837.50 1648Q794 1612 731 1603L730 1538L528 1538Z"  horiz-adv-x="1307" vert-adv-y="2048"  />

      
      <glyph glyph-name="uni0112" unicode="&#x0112;" d="M61 0L61 164L218 194L218 1261L61 1291L61 1456L1180 1456L1180 1072L970 1072L955 1247L490 1247L490 858L992 858L992 647L490 647L490 208L981 208L996 387L1204 387L1204 0L61 0M289 1604L289 1774L1018 1774L1018 1604L289 1604Z"  horiz-adv-x="1307" vert-adv-y="2048"  />

      
      <glyph glyph-name="uni0118" unicode="&#x0118;" d="M61 0L61 164L218 194L218 1261L61 1291L61 1456L1180 1456L1180 1072L970 1072L955 1247L490 1247L490 858L992 858L992 647L490 647L490 208L981 208L996 387L1204 387L1204 0L61 0M1103-426Q992-426 923-369Q854-312 854-209Q854-134 909-62.50Q964 9 1090 59L1204 0Q1132-47 1097.50-88.50Q1063-130 1063-177Q1063-215 1084-235Q1105-255 1152-255Q1176-255 1197-250Q1218-245 1238-237L1273-385Q1238-402 1197-414Q1156-426 1103-426Z"  horiz-adv-x="1307" vert-adv-y="2048"  />

      
      <glyph glyph-name="uni1EBC" unicode="&#x1EBC;" d="M61 0L61 164L218 194L218 1261L61 1291L61 1456L1180 1456L1180 1072L970 1072L955 1247L490 1247L490 858L992 858L992 647L490 647L490 208L981 208L996 387L1204 387L1204 0L61 0M427 1572L285 1608Q285 1675 316 1731Q347 1787 398 1821Q449 1855 509 1855Q557 1855 608.50 1831Q660 1807 707 1782.50Q754 1758 788 1758Q829 1759 854.50 1790Q880 1821 880 1868L1022 1829Q1022 1761 991.50 1705Q961 1649 910 1616Q859 1583 798 1583Q746 1583 694.50 1607.50Q643 1632 597.50 1656.50Q552 1681 518 1681Q477 1681 452 1649Q427 1617 427 1572Z"  horiz-adv-x="1307" vert-adv-y="2048"  />

      
      <glyph glyph-name="uni46" unicode="&#x46;" d="M61 0L61 164L218 194L218 1261L61 1291L61 1456L1207 1456L1207 1068L997 1068L982 1246L490 1246L490 823L1005 823L1005 613L490 613L490 194L647 164L647 0L61 0Z"  horiz-adv-x="1263" vert-adv-y="2048"  />

      
      <glyph glyph-name="uni47" unicode="&#x47;" d="M734-21Q520-21 368 70Q216 161 135 322Q54 483 54 696L54 740Q54 959 135 1124.50Q216 1290 362.50 1383.50Q509 1477 707 1477Q867 1477 1000.50 1435Q1134 1393 1233 1311L1233 994L1028 994L991 1193Q950 1226 883 1245.50Q816 1265 728 1265Q606 1265 515 1199.50Q424 1134 374.50 1016Q325 898 325 742L325 696Q325 542 373.50 428.50Q422 315 514.50 252.50Q607 190 741 190Q823 190 888.50 205Q954 220 998 242L998 509L775 524L775 717L1271 717L1271 133Q1181 66 1048.50 22.50Q916-21 734-21Z"  horiz-adv-x="1367" vert-adv-y="2048"  />

      
      <glyph glyph-name="uni011E" unicode="&#x011E;" d="M734-21Q520-21 368 70Q216 161 135 322Q54 483 54 696L54 740Q54 959 135 1124.50Q216 1290 362.50 1383.50Q509 1477 707 1477Q867 1477 1000.50 1435Q1134 1393 1233 1311L1233 994L1028 994L991 1193Q950 1226 883 1245.50Q816 1265 728 1265Q606 1265 515 1199.50Q424 1134 374.50 1016Q325 898 325 742L325 696Q325 542 373.50 428.50Q422 315 514.50 252.50Q607 190 741 190Q823 190 888.50 205Q954 220 998 242L998 509L775 524L775 717L1271 717L1271 133Q1181 66 1048.50 22.50Q916-21 734-21M684 1549Q526 1549 433.50 1630Q341 1711 344 1838L346 1844L534 1844Q534 1783 570 1743.50Q606 1704 684 1704Q759 1704 795.50 1743Q832 1782 832 1844L1020 1844L1022 1838Q1024 1711 932.50 1630Q841 1549 684 1549Z"  horiz-adv-x="1367" vert-adv-y="2048"  />

      
      <glyph glyph-name="uni011C" unicode="&#x011C;" d="M734-21Q520-21 368 70Q216 161 135 322Q54 483 54 696L54 740Q54 959 135 1124.50Q216 1290 362.50 1383.50Q509 1477 707 1477Q867 1477 1000.50 1435Q1134 1393 1233 1311L1233 994L1028 994L991 1193Q950 1226 883 1245.50Q816 1265 728 1265Q606 1265 515 1199.50Q424 1134 374.50 1016Q325 898 325 742L325 696Q325 542 373.50 428.50Q422 315 514.50 252.50Q607 190 741 190Q823 190 888.50 205Q954 220 998 242L998 509L775 524L775 717L1271 717L1271 133Q1181 66 1048.50 22.50Q916-21 734-21M333 1576L333 1602L586 1844L781 1844L1033 1600L1033 1576L819 1576L683 1721L544 1576L333 1576Z"  horiz-adv-x="1367" vert-adv-y="2048"  />

      
      <glyph glyph-name="uni0122" unicode="&#x0122;" d="M734-21Q520-21 368 70Q216 161 135 322Q54 483 54 696L54 740Q54 959 135 1124.50Q216 1290 362.50 1383.50Q509 1477 707 1477Q867 1477 1000.50 1435Q1134 1393 1233 1311L1233 994L1028 994L991 1193Q950 1226 883 1245.50Q816 1265 728 1265Q606 1265 515 1199.50Q424 1134 374.50 1016Q325 898 325 742L325 696Q325 542 373.50 428.50Q422 315 514.50 252.50Q607 190 741 190Q823 190 888.50 205Q954 220 998 242L998 509L775 524L775 717L1271 717L1271 133Q1181 66 1048.50 22.50Q916-21 734-21M637-533L513-447Q546-398 562.50-348.50Q579-299 579-228L579-134L811-134L811-216Q811-310 764-392.50Q717-475 637-533Z"  horiz-adv-x="1367" vert-adv-y="2048"  />

      
      <glyph glyph-name="uni0120" unicode="&#x0120;" d="M734-21Q520-21 368 70Q216 161 135 322Q54 483 54 696L54 740Q54 959 135 1124.50Q216 1290 362.50 1383.50Q509 1477 707 1477Q867 1477 1000.50 1435Q1134 1393 1233 1311L1233 994L1028 994L991 1193Q950 1226 883 1245.50Q816 1265 728 1265Q606 1265 515 1199.50Q424 1134 374.50 1016Q325 898 325 742L325 696Q325 542 373.50 428.50Q422 315 514.50 252.50Q607 190 741 190Q823 190 888.50 205Q954 220 998 242L998 509L775 524L775 717L1271 717L1271 133Q1181 66 1048.50 22.50Q916-21 734-21M542 1603L542 1844L824 1844L824 1603L542 1603Z"  horiz-adv-x="1367" vert-adv-y="2048"  />

      
      <glyph glyph-name="uni48" unicode="&#x48;" d="M61 0L61 164L218 194L218 1261L61 1291L61 1456L647 1456L647 1291L490 1261L490 823L1105 823L1105 1261L948 1291L948 1456L1105 1456L1377 1456L1534 1456L1534 1291L1377 1261L1377 194L1534 164L1534 0L948 0L948 164L1105 194L1105 613L490 613L490 194L647 164L647 0L61 0Z"  horiz-adv-x="1595" vert-adv-y="2048"  />

      
      <glyph glyph-name="uni0126" unicode="&#x0126;" d="M61 0L61 164L218 194L218 1261L61 1291L61 1456L647 1456L647 1291L490 1261L490 823L1105 823L1105 1261L948 1291L948 1456L1105 1456L1377 1456L1534 1456L1534 1291L1377 1261L1377 194L1534 164L1534 0L948 0L948 164L1105 194L1105 613L490 613L490 194L647 164L647 0L61 0M67 958L67 1108L1528 1108L1528 958L67 958Z"  horiz-adv-x="1595" vert-adv-y="2048"  />

      
      <glyph glyph-name="uni0124" unicode="&#x0124;" d="M61 0L61 164L218 194L218 1261L61 1291L61 1456L647 1456L647 1291L490 1261L490 823L1105 823L1105 1261L948 1291L948 1456L1105 1456L1377 1456L1534 1456L1534 1291L1377 1261L1377 194L1534 164L1534 0L948 0L948 164L1105 194L1105 613L490 613L490 194L647 164L647 0L61 0M447 1576L447 1602L700 1844L895 1844L1147 1600L1147 1576L933 1576L797 1721L658 1576L447 1576Z"  horiz-adv-x="1595" vert-adv-y="2048"  />

      
      <glyph glyph-name="uni49" unicode="&#x49;" d="M61 0L61 164L218 194L218 1261L61 1291L61 1456L647 1456L647 1291L490 1261L490 194L647 164L647 0L61 0Z"  horiz-adv-x="708" vert-adv-y="2048"  />

      
      <glyph glyph-name="uni0132" unicode="&#x0132;" d="M61 0L61 164L218 194L218 1261L61 1291L61 1456L647 1456L647 1291L490 1261L490 194L647 164L647 0L61 0M1244-21Q1099-21 988 30Q877 81 812.50 185Q748 289 742 448L744 454L1000 454Q1007 310 1064.50 251Q1122 192 1221 192Q1285 192 1332.50 220Q1380 248 1406.50 301.50Q1433 355 1433 432L1433 1261L1237 1290L1237 1456L1861 1456L1861 1291L1704 1261L1704 432Q1704 294 1650.50 192Q1597 90 1495 34.50Q1393-21 1244-21Z"  horiz-adv-x="1892" vert-adv-y="2048"  />

      
      <glyph glyph-name="unicd" unicode="&#xcd;" d="M61 0L61 164L218 194L218 1261L61 1291L61 1456L647 1456L647 1291L490 1261L490 194L647 164L647 0L61 0M191 1572L387 1844L679 1844L681 1838L407 1572L199 1572L191 1572Z"  horiz-adv-x="708" vert-adv-y="2048"  />

      
      <glyph glyph-name="uni012C" unicode="&#x012C;" d="M61 0L61 164L218 194L218 1261L61 1291L61 1456L647 1456L647 1291L490 1261L490 194L647 164L647 0L61 0M355 1549Q197 1549 104.50 1630Q12 1711 15 1838L17 1844L205 1844Q205 1783 241 1743.50Q277 1704 355 1704Q430 1704 466.50 1743Q503 1782 503 1844L691 1844L693 1838Q695 1711 603.50 1630Q512 1549 355 1549Z"  horiz-adv-x="708" vert-adv-y="2048"  />

      
      <glyph glyph-name="unice" unicode="&#xce;" d="M61 0L61 164L218 194L218 1261L61 1291L61 1456L647 1456L647 1291L490 1261L490 194L647 164L647 0L61 0M4 1576L4 1602L257 1844L452 1844L704 1600L704 1576L490 1576L354 1721L215 1576L4 1576Z"  horiz-adv-x="708" vert-adv-y="2048"  />

      
      <glyph glyph-name="unicf" unicode="&#xcf;" d="M61 0L61 164L218 194L218 1261L61 1291L61 1456L647 1456L647 1291L490 1261L490 194L647 164L647 0L61 0M444 1603L444 1844L710 1844L710 1603L444 1603M-1 1603L-1 1844L264 1844L264 1603L-1 1603Z"  horiz-adv-x="708" vert-adv-y="2048"  />

      
      <glyph glyph-name="uni0130" unicode="&#x0130;" d="M61 0L61 164L218 194L218 1261L61 1291L61 1456L647 1456L647 1291L490 1261L490 194L647 164L647 0L61 0M213 1603L213 1844L495 1844L495 1603L213 1603Z"  horiz-adv-x="708" vert-adv-y="2048"  />

      
      <glyph glyph-name="uni1ECA" unicode="&#x1ECA;" d="M61 0L61 164L218 194L218 1261L61 1291L61 1456L647 1456L647 1291L490 1261L490 194L647 164L647 0L61 0M213-407L213-166L495-166L495-407L213-407Z"  horiz-adv-x="708" vert-adv-y="2048"  />

      
      <glyph glyph-name="unicc" unicode="&#xcc;" d="M61 0L61 164L218 194L218 1261L61 1291L61 1456L647 1456L647 1291L490 1261L490 194L647 164L647 0L61 0M518 1572L510 1572L302 1572L28 1838L30 1844L322 1844L518 1572Z"  horiz-adv-x="708" vert-adv-y="2048"  />

      
      <glyph glyph-name="uni1EC8" unicode="&#x1EC8;" d="M61 0L61 164L218 194L218 1261L61 1291L61 1456L647 1456L647 1291L490 1261L490 194L647 164L647 0L61 0M228 1538L216 1677Q290 1680 322 1695Q354 1710 354 1744Q354 1779 315 1795.50Q276 1812 208 1812L215 1939Q392 1939 486.50 1888Q581 1837 581 1749Q581 1684 537.50 1648Q494 1612 431 1603L430 1538L228 1538Z"  horiz-adv-x="708" vert-adv-y="2048"  />

      
      <glyph glyph-name="uni012A" unicode="&#x012A;" d="M61 0L61 164L218 194L218 1261L61 1291L61 1456L647 1456L647 1291L490 1261L490 194L647 164L647 0L61 0M-11 1604L-11 1774L718 1774L718 1604L-11 1604Z"  horiz-adv-x="708" vert-adv-y="2048"  />

      
      <glyph glyph-name="uni012E" unicode="&#x012E;" d="M61 0L61 164L218 194L218 1261L61 1291L61 1456L647 1456L647 1291L490 1261L490 194L647 164L647 0L61 0M546-426Q435-426 366-369Q297-312 297-209Q297-134 352-62.50Q407 9 533 59L647 0Q575-47 540.50-88.50Q506-130 506-177Q506-215 527-235Q548-255 595-255Q619-255 640-250Q661-245 681-237L716-385Q681-402 640-414Q599-426 546-426Z"  horiz-adv-x="708" vert-adv-y="2048"  />

      
      <glyph glyph-name="uni0128" unicode="&#x0128;" d="M61 0L61 164L218 194L218 1261L61 1291L61 1456L647 1456L647 1291L490 1261L490 194L647 164L647 0L61 0M127 1572L-15 1608Q-15 1675 16 1731Q47 1787 98 1821Q149 1855 209 1855Q257 1855 308.50 1831Q360 1807 407 1782.50Q454 1758 488 1758Q529 1759 554.50 1790Q580 1821 580 1868L722 1829Q722 1761 691.50 1705Q661 1649 610 1616Q559 1583 498 1583Q446 1583 394.50 1607.50Q343 1632 297.50 1656.50Q252 1681 218 1681Q177 1681 152 1649Q127 1617 127 1572Z"  horiz-adv-x="708" vert-adv-y="2048"  />

      
      <glyph glyph-name="uni4a" unicode="&#x4a;" d="M542-21Q397-21 286 30Q175 81 110.50 185Q46 289 40 448L42 454L298 454Q305 310 362.50 251Q420 192 519 192Q583 192 630.50 220Q678 248 704.50 301.50Q731 355 731 432L731 1261L535 1290L535 1456L1159 1456L1159 1291L1002 1261L1002 432Q1002 294 948.50 192Q895 90 793 34.50Q691-21 542-21Z"  horiz-adv-x="1195" vert-adv-y="2048"  />

      
      <glyph glyph-name="uni0134" unicode="&#x0134;" d="M542-21Q397-21 286 30Q175 81 110.50 185Q46 289 40 448L42 454L298 454Q305 310 362.50 251Q420 192 519 192Q583 192 630.50 220Q678 248 704.50 301.50Q731 355 731 432L731 1261L535 1290L535 1456L1159 1456L1159 1291L1002 1261L1002 432Q1002 294 948.50 192Q895 90 793 34.50Q691-21 542-21M511 1576L511 1602L764 1844L959 1844L1211 1600L1211 1576L997 1576L861 1721L722 1576L511 1576Z"  horiz-adv-x="1195" vert-adv-y="2048"  />

      
      <glyph glyph-name="uni4b" unicode="&#x4b;" d="M439 370L298 533L1006 1274L1008 1278L872 1291L872 1456L1443 1456L1443 1291L1306 1264L439 370M61 0L61 164L218 194L218 1261L61 1291L61 1456L641 1456L641 1291L490 1261L490 194L641 164L641 0L61 0M904 0L904 164L1037 177L1037 178L660 698L836 883L1354 189L1495 164L1495 0L904 0Z"  horiz-adv-x="1536" vert-adv-y="2048"  />

      
      <glyph glyph-name="uni0136" unicode="&#x0136;" d="M439 370L298 533L1006 1274L1008 1278L872 1291L872 1456L1443 1456L1443 1291L1306 1264L439 370M61 0L61 164L218 194L218 1261L61 1291L61 1456L641 1456L641 1291L490 1261L490 194L641 164L641 0L61 0M904 0L904 164L1037 177L1037 178L660 698L836 883L1354 189L1495 164L1495 0L904 0M720-533L596-447Q629-398 645.50-348.50Q662-299 662-228L662-134L894-134L894-216Q894-310 847-392.50Q800-475 720-533Z"  horiz-adv-x="1536" vert-adv-y="2048"  />

      
      <glyph glyph-name="uni4c" unicode="&#x4c;" d="M61 0L61 164L218 194L218 1261L61 1291L61 1456L218 1456L490 1456L663 1456L663 1291L490 1261L490 208L923 208L939 425L1147 425L1147 0L61 0Z"  horiz-adv-x="1202" vert-adv-y="2048"  />

      
      <glyph glyph-name="uni0139" unicode="&#x0139;" d="M61 0L61 164L218 194L218 1261L61 1291L61 1456L218 1456L490 1456L663 1456L663 1291L490 1261L490 208L923 208L939 425L1147 425L1147 0L61 0M204 1572L400 1844L692 1844L694 1838L420 1572L212 1572L204 1572Z"  horiz-adv-x="1202" vert-adv-y="2048"  />

      
      <glyph glyph-name="uni013D" unicode="&#x013D;" d="M61 0L61 164L218 194L218 1261L61 1291L61 1456L218 1456L490 1456L663 1456L663 1291L490 1261L490 208L923 208L939 425L1147 425L1147 0L61 0M992 1057L868 1143Q901 1192 917.50 1241.50Q934 1291 934 1363L934 1456L1166 1456L1166 1374Q1166 1280 1119 1197.50Q1072 1115 992 1057Z"  horiz-adv-x="1202" vert-adv-y="2048"  />

      
      <glyph glyph-name="uni013B" unicode="&#x013B;" d="M61 0L61 164L218 194L218 1261L61 1291L61 1456L218 1456L490 1456L663 1456L663 1291L490 1261L490 208L923 208L939 425L1147 425L1147 0L61 0M554-533L430-447Q463-398 479.50-348.50Q496-299 496-228L496-134L728-134L728-216Q728-310 681-392.50Q634-475 554-533Z"  horiz-adv-x="1202" vert-adv-y="2048"  />

      
      <glyph glyph-name="uni013F" unicode="&#x013F;" d="M61 0L61 164L218 194L218 1261L61 1291L61 1456L218 1456L490 1456L663 1456L663 1291L490 1261L490 208L923 208L939 425L1147 425L1147 0L61 0M848 617L848 862L1119 862L1119 617L848 617Z"  horiz-adv-x="1202" vert-adv-y="2048"  />

      
      <glyph glyph-name="uni0141" unicode="&#x0141;" d="M61 0L61 164L218 194L218 1261L61 1291L61 1456L218 1456L490 1456L663 1456L663 1291L490 1261L490 208L923 208L939 425L1147 425L1147 0L61 0M79 573L79 761L716 948L716 760L79 573Z"  horiz-adv-x="1202" vert-adv-y="2048"  />

      
      <glyph glyph-name="uni4d" unicode="&#x4d;" d="M64 0L64 164L220 194L220 1261L64 1291L64 1456L220 1456L617 1456L1029 422L1035 422L1434 1456L1990 1456L1990 1291L1833 1261L1833 194L1990 164L1990 0L1404 0L1404 164L1569 194L1569 503L1573 1150L1568 1151L1124 27L923 27L468 1144L462 1143L478 527L478 194L650 164L650 0L64 0Z"  horiz-adv-x="2048" vert-adv-y="2048"  />

      
      <glyph glyph-name="uni1E3E" unicode="&#x1E3E;" d="M64 0L64 164L220 194L220 1261L64 1291L64 1456L220 1456L617 1456L1029 422L1035 422L1434 1456L1990 1456L1990 1291L1833 1261L1833 194L1990 164L1990 0L1404 0L1404 164L1569 194L1569 503L1573 1150L1568 1151L1124 27L923 27L468 1144L462 1143L478 527L478 194L650 164L650 0L64 0M861 1572L1057 1844L1349 1844L1351 1838L1077 1572L869 1572L861 1572Z"  horiz-adv-x="2048" vert-adv-y="2048"  />

      
      <glyph glyph-name="uni4e" unicode="&#x4e;" d="M62 0L62 164L218 194L218 1261L62 1291L62 1456L218 1456L494 1456L1145 420L1151 421L1151 1261L966 1291L966 1456L1395 1456L1552 1456L1552 1291L1395 1261L1395 0L1134 0L469 1029L463 1028L463 194L648 164L648 0L62 0Z"  horiz-adv-x="1601" vert-adv-y="2048"  />

      
      <glyph glyph-name="uni0143" unicode="&#x0143;" d="M62 0L62 164L218 194L218 1261L62 1291L62 1456L218 1456L494 1456L1145 420L1151 421L1151 1261L966 1291L966 1456L1395 1456L1552 1456L1552 1291L1395 1261L1395 0L1134 0L469 1029L463 1028L463 194L648 164L648 0L62 0M638 1572L834 1844L1126 1844L1128 1838L854 1572L646 1572L638 1572Z"  horiz-adv-x="1601" vert-adv-y="2048"  />

      
      <glyph glyph-name="uni0147" unicode="&#x0147;" d="M62 0L62 164L218 194L218 1261L62 1291L62 1456L218 1456L494 1456L1145 420L1151 421L1151 1261L966 1291L966 1456L1395 1456L1552 1456L1552 1291L1395 1261L1395 0L1134 0L469 1029L463 1028L463 194L648 164L648 0L62 0M1151 1844L1151 1818L898 1576L703 1576L451 1820L451 1844L665 1844L801 1699L940 1844L1151 1844Z"  horiz-adv-x="1601" vert-adv-y="2048"  />

      
      <glyph glyph-name="uni0145" unicode="&#x0145;" d="M62 0L62 164L218 194L218 1261L62 1291L62 1456L218 1456L494 1456L1145 420L1151 421L1151 1261L966 1291L966 1456L1395 1456L1552 1456L1552 1291L1395 1261L1395 0L1134 0L469 1029L463 1028L463 194L648 164L648 0L62 0M754-533L630-447Q663-398 679.50-348.50Q696-299 696-228L696-134L928-134L928-216Q928-310 881-392.50Q834-475 754-533Z"  horiz-adv-x="1601" vert-adv-y="2048"  />

      
      <glyph glyph-name="uni014A" unicode="&#x014A;" d="M1016-437Q978-437 946.50-433Q915-429 879-420L893-214Q914-219 940-223Q966-227 988-227Q1049-227 1082-180.50Q1115-134 1115-51L1115 0L504 1009L498 1008L498 194L654 164L654 0L69 0L69 164L226 194L226 1261L69 1291L69 1456L498 1456L1109 447L1115 449L1115 1261L958 1291L958 1456L1543 1456L1543 1291L1387 1261L1387-51Q1387-236 1289-336.50Q1191-437 1016-437Z"  horiz-adv-x="1579" vert-adv-y="2048"  />

      
      <glyph glyph-name="unid1" unicode="&#xd1;" d="M62 0L62 164L218 194L218 1261L62 1291L62 1456L218 1456L494 1456L1145 420L1151 421L1151 1261L966 1291L966 1456L1395 1456L1552 1456L1552 1291L1395 1261L1395 0L1134 0L469 1029L463 1028L463 194L648 164L648 0L62 0M574 1572L432 1608Q432 1675 463 1731Q494 1787 545 1821Q596 1855 656 1855Q704 1855 755.50 1831Q807 1807 854 1782.50Q901 1758 935 1758Q976 1759 1001.50 1790Q1027 1821 1027 1868L1169 1829Q1169 1761 1138.50 1705Q1108 1649 1057 1616Q1006 1583 945 1583Q893 1583 841.50 1607.50Q790 1632 744.50 1656.50Q699 1681 665 1681Q624 1681 599 1649Q574 1617 574 1572Z"  horiz-adv-x="1601" vert-adv-y="2048"  />

      
      <glyph glyph-name="uni4f" unicode="&#x4f;" d="M713-21Q567-21 448 33.50Q329 88 243.50 187.50Q158 287 112 421.50Q66 556 66 717L66 739Q66 899 112 1033.50Q158 1168 243.50 1267.50Q329 1367 447.50 1422Q566 1477 712 1477Q861 1477 980.50 1422Q1100 1367 1186 1267.50Q1272 1168 1317.50 1033.50Q1363 899 1363 739L1363 717Q1363 556 1317.50 421.50Q1272 287 1186.50 187.50Q1101 88 981 33.50Q861-21 713-21M713 193Q841 193 925 258.50Q1009 324 1050.50 442Q1092 560 1092 717L1092 741Q1092 896 1050 1013Q1008 1130 923.50 1196Q839 1262 712 1262Q588 1262 505 1196.50Q422 1131 380.50 1014Q339 897 339 741L339 717Q339 561 380.50 442.50Q422 324 505.50 258.50Q589 193 713 193Z"  horiz-adv-x="1426" vert-adv-y="2048"  />

      
      <glyph glyph-name="unid3" unicode="&#xd3;" d="M713-21Q567-21 448 33.50Q329 88 243.50 187.50Q158 287 112 421.50Q66 556 66 717L66 739Q66 899 112 1033.50Q158 1168 243.50 1267.50Q329 1367 447.50 1422Q566 1477 712 1477Q861 1477 980.50 1422Q1100 1367 1186 1267.50Q1272 1168 1317.50 1033.50Q1363 899 1363 739L1363 717Q1363 556 1317.50 421.50Q1272 287 1186.50 187.50Q1101 88 981 33.50Q861-21 713-21M713 193Q841 193 925 258.50Q1009 324 1050.50 442Q1092 560 1092 717L1092 741Q1092 896 1050 1013Q1008 1130 923.50 1196Q839 1262 712 1262Q588 1262 505 1196.50Q422 1131 380.50 1014Q339 897 339 741L339 717Q339 561 380.50 442.50Q422 324 505.50 258.50Q589 193 713 193M550 1572L746 1844L1038 1844L1040 1838L766 1572L558 1572L550 1572Z"  horiz-adv-x="1426" vert-adv-y="2048"  />

      
      <glyph glyph-name="uni014E" unicode="&#x014E;" d="M713-21Q567-21 448 33.50Q329 88 243.50 187.50Q158 287 112 421.50Q66 556 66 717L66 739Q66 899 112 1033.50Q158 1168 243.50 1267.50Q329 1367 447.50 1422Q566 1477 712 1477Q861 1477 980.50 1422Q1100 1367 1186 1267.50Q1272 1168 1317.50 1033.50Q1363 899 1363 739L1363 717Q1363 556 1317.50 421.50Q1272 287 1186.50 187.50Q1101 88 981 33.50Q861-21 713-21M713 193Q841 193 925 258.50Q1009 324 1050.50 442Q1092 560 1092 717L1092 741Q1092 896 1050 1013Q1008 1130 923.50 1196Q839 1262 712 1262Q588 1262 505 1196.50Q422 1131 380.50 1014Q339 897 339 741L339 717Q339 561 380.50 442.50Q422 324 505.50 258.50Q589 193 713 193M714 1549Q556 1549 463.50 1630Q371 1711 374 1838L376 1844L564 1844Q564 1783 600 1743.50Q636 1704 714 1704Q789 1704 825.50 1743Q862 1782 862 1844L1050 1844L1052 1838Q1054 1711 962.50 1630Q871 1549 714 1549Z"  horiz-adv-x="1426" vert-adv-y="2048"  />

      
      <glyph glyph-name="unid4" unicode="&#xd4;" d="M713-21Q567-21 448 33.50Q329 88 243.50 187.50Q158 287 112 421.50Q66 556 66 717L66 739Q66 899 112 1033.50Q158 1168 243.50 1267.50Q329 1367 447.50 1422Q566 1477 712 1477Q861 1477 980.50 1422Q1100 1367 1186 1267.50Q1272 1168 1317.50 1033.50Q1363 899 1363 739L1363 717Q1363 556 1317.50 421.50Q1272 287 1186.50 187.50Q1101 88 981 33.50Q861-21 713-21M713 193Q841 193 925 258.50Q1009 324 1050.50 442Q1092 560 1092 717L1092 741Q1092 896 1050 1013Q1008 1130 923.50 1196Q839 1262 712 1262Q588 1262 505 1196.50Q422 1131 380.50 1014Q339 897 339 741L339 717Q339 561 380.50 442.50Q422 324 505.50 258.50Q589 193 713 193M363 1576L363 1602L616 1844L811 1844L1063 1600L1063 1576L849 1576L713 1721L574 1576L363 1576Z"  horiz-adv-x="1426" vert-adv-y="2048"  />

      
      <glyph glyph-name="uni1ED0" unicode="&#x1ED0;" d="M713-21Q567-21 448 33.50Q329 88 243.50 187.50Q158 287 112 421.50Q66 556 66 717L66 739Q66 899 112 1033.50Q158 1168 243.50 1267.50Q329 1367 447.50 1422Q566 1477 712 1477Q861 1477 980.50 1422Q1100 1367 1186 1267.50Q1272 1168 1317.50 1033.50Q1363 899 1363 739L1363 717Q1363 556 1317.50 421.50Q1272 287 1186.50 187.50Q1101 88 981 33.50Q861-21 713-21M713 193Q841 193 925 258.50Q1009 324 1050.50 442Q1092 560 1092 717L1092 741Q1092 896 1050 1013Q1008 1130 923.50 1196Q839 1262 712 1262Q588 1262 505 1196.50Q422 1131 380.50 1014Q339 897 339 741L339 717Q339 561 380.50 442.50Q422 324 505.50 258.50Q589 193 713 193M361 1537L361 1563L614 1786L814 1786L1066 1560L1066 1537L848 1537L713 1668L575 1537L361 1537M895 1795L1009 2022L1246 2022L1248 2016L1052 1795L903 1795L895 1795Z"  horiz-adv-x="1426" vert-adv-y="2048"  />

      
      <glyph glyph-name="uni1ED8" unicode="&#x1ED8;" d="M713-21Q567-21 448 33.50Q329 88 243.50 187.50Q158 287 112 421.50Q66 556 66 717L66 739Q66 899 112 1033.50Q158 1168 243.50 1267.50Q329 1367 447.50 1422Q566 1477 712 1477Q861 1477 980.50 1422Q1100 1367 1186 1267.50Q1272 1168 1317.50 1033.50Q1363 899 1363 739L1363 717Q1363 556 1317.50 421.50Q1272 287 1186.50 187.50Q1101 88 981 33.50Q861-21 713-21M713 193Q841 193 925 258.50Q1009 324 1050.50 442Q1092 560 1092 717L1092 741Q1092 896 1050 1013Q1008 1130 923.50 1196Q839 1262 712 1262Q588 1262 505 1196.50Q422 1131 380.50 1014Q339 897 339 741L339 717Q339 561 380.50 442.50Q422 324 505.50 258.50Q589 193 713 193M363 1576L363 1602L616 1844L811 1844L1063 1600L1063 1576L849 1576L713 1721L574 1576L363 1576M572-407L572-166L854-166L854-407L572-407Z"  horiz-adv-x="1426" vert-adv-y="2048"  />

      
      <glyph glyph-name="uni1ED2" unicode="&#x1ED2;" d="M713-21Q567-21 448 33.50Q329 88 243.50 187.50Q158 287 112 421.50Q66 556 66 717L66 739Q66 899 112 1033.50Q158 1168 243.50 1267.50Q329 1367 447.50 1422Q566 1477 712 1477Q861 1477 980.50 1422Q1100 1367 1186 1267.50Q1272 1168 1317.50 1033.50Q1363 899 1363 739L1363 717Q1363 556 1317.50 421.50Q1272 287 1186.50 187.50Q1101 88 981 33.50Q861-21 713-21M713 193Q841 193 925 258.50Q1009 324 1050.50 442Q1092 560 1092 717L1092 741Q1092 896 1050 1013Q1008 1130 923.50 1196Q839 1262 712 1262Q588 1262 505 1196.50Q422 1131 380.50 1014Q339 897 339 741L339 717Q339 561 380.50 442.50Q422 324 505.50 258.50Q589 193 713 193M1066 1537L852 1537L714 1668L579 1537L361 1537L361 1560L613 1786L813 1786L1066 1563L1066 1537M533 1795L525 1795L375 1795L179 2016L181 2022L418 2022L533 1795Z"  horiz-adv-x="1426" vert-adv-y="2048"  />

      
      <glyph glyph-name="uni1ED4" unicode="&#x1ED4;" d="M713-21Q567-21 448 33.50Q329 88 243.50 187.50Q158 287 112 421.50Q66 556 66 717L66 739Q66 899 112 1033.50Q158 1168 243.50 1267.50Q329 1367 447.50 1422Q566 1477 712 1477Q861 1477 980.50 1422Q1100 1367 1186 1267.50Q1272 1168 1317.50 1033.50Q1363 899 1363 739L1363 717Q1363 556 1317.50 421.50Q1272 287 1186.50 187.50Q1101 88 981 33.50Q861-21 713-21M713 193Q841 193 925 258.50Q1009 324 1050.50 442Q1092 560 1092 717L1092 741Q1092 896 1050 1013Q1008 1130 923.50 1196Q839 1262 712 1262Q588 1262 505 1196.50Q422 1131 380.50 1014Q339 897 339 741L339 717Q339 561 380.50 442.50Q422 324 505.50 258.50Q589 193 713 193M362 1537L362 1563L615 1786L815 1786L1067 1560L1067 1537L849 1537L714 1668L576 1537L362 1537M937 1744L925 1859Q993 1862 1022.50 1874.50Q1052 1887 1052 1915Q1052 1947 1017.50 1960.50Q983 1974 922 1974L929 2084Q1083 2084 1165 2042.50Q1247 2001 1247 1928Q1247 1872 1206.50 1841Q1166 1810 1106 1802L1105 1744L937 1744Z"  horiz-adv-x="1426" vert-adv-y="2048"  />

      
      <glyph glyph-name="uni1ED6" unicode="&#x1ED6;" d="M713-21Q567-21 448 33.50Q329 88 243.50 187.50Q158 287 112 421.50Q66 556 66 717L66 739Q66 899 112 1033.50Q158 1168 243.50 1267.50Q329 1367 447.50 1422Q566 1477 712 1477Q861 1477 980.50 1422Q1100 1367 1186 1267.50Q1272 1168 1317.50 1033.50Q1363 899 1363 739L1363 717Q1363 556 1317.50 421.50Q1272 287 1186.50 187.50Q1101 88 981 33.50Q861-21 713-21M713 193Q841 193 925 258.50Q1009 324 1050.50 442Q1092 560 1092 717L1092 741Q1092 896 1050 1013Q1008 1130 923.50 1196Q839 1262 712 1262Q588 1262 505 1196.50Q422 1131 380.50 1014Q339 897 339 741L339 717Q339 561 380.50 442.50Q422 324 505.50 258.50Q589 193 713 193M507 1836L373 1871Q373 1932 400.50 1983.50Q428 2035 474.50 2066Q521 2097 576 2097Q619 2097 664 2075Q709 2053 751.50 2031Q794 2009 826 2009Q864 2009 886.50 2038.50Q909 2068 909 2110L1043 2073Q1043 2011 1015 1960Q987 1909 941 1878.50Q895 1848 839 1848Q792 1848 747 1870Q702 1892 661.50 1914Q621 1936 589 1936Q552 1936 529.50 1906.50Q507 1877 507 1836M361 1537L361 1563L614 1786L814 1786L1066 1560L1066 1537L848 1537L713 1668L575 1537L361 1537Z"  horiz-adv-x="1426" vert-adv-y="2048"  />

      
      <glyph glyph-name="unid6" unicode="&#xd6;" d="M713-21Q567-21 448 33.50Q329 88 243.50 187.50Q158 287 112 421.50Q66 556 66 717L66 739Q66 899 112 1033.50Q158 1168 243.50 1267.50Q329 1367 447.50 1422Q566 1477 712 1477Q861 1477 980.50 1422Q1100 1367 1186 1267.50Q1272 1168 1317.50 1033.50Q1363 899 1363 739L1363 717Q1363 556 1317.50 421.50Q1272 287 1186.50 187.50Q1101 88 981 33.50Q861-21 713-21M713 193Q841 193 925 258.50Q1009 324 1050.50 442Q1092 560 1092 717L1092 741Q1092 896 1050 1013Q1008 1130 923.50 1196Q839 1262 712 1262Q588 1262 505 1196.50Q422 1131 380.50 1014Q339 897 339 741L339 717Q339 561 380.50 442.50Q422 324 505.50 258.50Q589 193 713 193M803 1603L803 1844L1069 1844L1069 1603L803 1603M358 1603L358 1844L623 1844L623 1603L358 1603Z"  horiz-adv-x="1426" vert-adv-y="2048"  />

      
      <glyph glyph-name="uni1ECC" unicode="&#x1ECC;" d="M713-21Q567-21 448 33.50Q329 88 243.50 187.50Q158 287 112 421.50Q66 556 66 717L66 739Q66 899 112 1033.50Q158 1168 243.50 1267.50Q329 1367 447.50 1422Q566 1477 712 1477Q861 1477 980.50 1422Q1100 1367 1186 1267.50Q1272 1168 1317.50 1033.50Q1363 899 1363 739L1363 717Q1363 556 1317.50 421.50Q1272 287 1186.50 187.50Q1101 88 981 33.50Q861-21 713-21M713 193Q841 193 925 258.50Q1009 324 1050.50 442Q1092 560 1092 717L1092 741Q1092 896 1050 1013Q1008 1130 923.50 1196Q839 1262 712 1262Q588 1262 505 1196.50Q422 1131 380.50 1014Q339 897 339 741L339 717Q339 561 380.50 442.50Q422 324 505.50 258.50Q589 193 713 193M572-407L572-166L854-166L854-407L572-407Z"  horiz-adv-x="1426" vert-adv-y="2048"  />

      
      <glyph glyph-name="unid2" unicode="&#xd2;" d="M713-21Q567-21 448 33.50Q329 88 243.50 187.50Q158 287 112 421.50Q66 556 66 717L66 739Q66 899 112 1033.50Q158 1168 243.50 1267.50Q329 1367 447.50 1422Q566 1477 712 1477Q861 1477 980.50 1422Q1100 1367 1186 1267.50Q1272 1168 1317.50 1033.50Q1363 899 1363 739L1363 717Q1363 556 1317.50 421.50Q1272 287 1186.50 187.50Q1101 88 981 33.50Q861-21 713-21M713 193Q841 193 925 258.50Q1009 324 1050.50 442Q1092 560 1092 717L1092 741Q1092 896 1050 1013Q1008 1130 923.50 1196Q839 1262 712 1262Q588 1262 505 1196.50Q422 1131 380.50 1014Q339 897 339 741L339 717Q339 561 380.50 442.50Q422 324 505.50 258.50Q589 193 713 193M877 1572L869 1572L661 1572L387 1838L389 1844L681 1844L877 1572Z"  horiz-adv-x="1426" vert-adv-y="2048"  />

      
      <glyph glyph-name="uni1ECE" unicode="&#x1ECE;" d="M713-21Q567-21 448 33.50Q329 88 243.50 187.50Q158 287 112 421.50Q66 556 66 717L66 739Q66 899 112 1033.50Q158 1168 243.50 1267.50Q329 1367 447.50 1422Q566 1477 712 1477Q861 1477 980.50 1422Q1100 1367 1186 1267.50Q1272 1168 1317.50 1033.50Q1363 899 1363 739L1363 717Q1363 556 1317.50 421.50Q1272 287 1186.50 187.50Q1101 88 981 33.50Q861-21 713-21M713 193Q841 193 925 258.50Q1009 324 1050.50 442Q1092 560 1092 717L1092 741Q1092 896 1050 1013Q1008 1130 923.50 1196Q839 1262 712 1262Q588 1262 505 1196.50Q422 1131 380.50 1014Q339 897 339 741L339 717Q339 561 380.50 442.50Q422 324 505.50 258.50Q589 193 713 193M587 1538L575 1677Q649 1680 681 1695Q713 1710 713 1744Q713 1779 674 1795.50Q635 1812 567 1812L574 1939Q751 1939 845.50 1888Q940 1837 940 1749Q940 1684 896.50 1648Q853 1612 790 1603L789 1538L587 1538Z"  horiz-adv-x="1426" vert-adv-y="2048"  />

      
      <glyph glyph-name="uni01A0" unicode="&#x01A0;" d="M713-21Q567-21 448 33.50Q329 88 243.50 187.50Q158 287 112 421.50Q66 556 66 717L66 739Q66 899 112 1033.50Q158 1168 243.50 1267.50Q329 1367 447.50 1422Q566 1477 712 1477Q861 1477 980.50 1422Q1100 1367 1186 1267.50Q1272 1168 1317.50 1033.50Q1363 899 1363 739L1363 717Q1363 556 1317.50 421.50Q1272 287 1186.50 187.50Q1101 88 981 33.50Q861-21 713-21M713 193Q841 193 925 258.50Q1009 324 1050.50 442Q1092 560 1092 717L1092 741Q1092 896 1050 1013Q1008 1130 923.50 1196Q839 1262 712 1262Q588 1262 505 1196.50Q422 1131 380.50 1014Q339 897 339 741L339 717Q339 561 380.50 442.50Q422 324 505.50 258.50Q589 193 713 193M1050 1158L1049 1312Q1150 1312 1185.50 1380Q1221 1448 1220 1575L1441 1575Q1441 1445 1399 1351.50Q1357 1258 1270.50 1208Q1184 1158 1050 1158Z"  horiz-adv-x="1426" vert-adv-y="2048"  />

      
      <glyph glyph-name="uni1EDA" unicode="&#x1EDA;" d="M713-21Q567-21 448 33.50Q329 88 243.50 187.50Q158 287 112 421.50Q66 556 66 717L66 739Q66 899 112 1033.50Q158 1168 243.50 1267.50Q329 1367 447.50 1422Q566 1477 712 1477Q861 1477 980.50 1422Q1100 1367 1186 1267.50Q1272 1168 1317.50 1033.50Q1363 899 1363 739L1363 717Q1363 556 1317.50 421.50Q1272 287 1186.50 187.50Q1101 88 981 33.50Q861-21 713-21M713 193Q841 193 925 258.50Q1009 324 1050.50 442Q1092 560 1092 717L1092 741Q1092 896 1050 1013Q1008 1130 923.50 1196Q839 1262 712 1262Q588 1262 505 1196.50Q422 1131 380.50 1014Q339 897 339 741L339 717Q339 561 380.50 442.50Q422 324 505.50 258.50Q589 193 713 193M1050 1158L1049 1312Q1150 1312 1185.50 1380Q1221 1448 1220 1575L1441 1575Q1441 1445 1399 1351.50Q1357 1258 1270.50 1208Q1184 1158 1050 1158M550 1572L746 1844L1038 1844L1040 1838L766 1572L558 1572L550 1572Z"  horiz-adv-x="1426" vert-adv-y="2048"  />

      
      <glyph glyph-name="uni1EE2" unicode="&#x1EE2;" d="M713-21Q567-21 448 33.50Q329 88 243.50 187.50Q158 287 112 421.50Q66 556 66 717L66 739Q66 899 112 1033.50Q158 1168 243.50 1267.50Q329 1367 447.50 1422Q566 1477 712 1477Q861 1477 980.50 1422Q1100 1367 1186 1267.50Q1272 1168 1317.50 1033.50Q1363 899 1363 739L1363 717Q1363 556 1317.50 421.50Q1272 287 1186.50 187.50Q1101 88 981 33.50Q861-21 713-21M713 193Q841 193 925 258.50Q1009 324 1050.50 442Q1092 560 1092 717L1092 741Q1092 896 1050 1013Q1008 1130 923.50 1196Q839 1262 712 1262Q588 1262 505 1196.50Q422 1131 380.50 1014Q339 897 339 741L339 717Q339 561 380.50 442.50Q422 324 505.50 258.50Q589 193 713 193M1050 1158L1049 1312Q1150 1312 1185.50 1380Q1221 1448 1220 1575L1441 1575Q1441 1445 1399 1351.50Q1357 1258 1270.50 1208Q1184 1158 1050 1158M572-407L572-166L854-166L854-407L572-407Z"  horiz-adv-x="1426" vert-adv-y="2048"  />

      
      <glyph glyph-name="uni1EDC" unicode="&#x1EDC;" d="M713-21Q567-21 448 33.50Q329 88 243.50 187.50Q158 287 112 421.50Q66 556 66 717L66 739Q66 899 112 1033.50Q158 1168 243.50 1267.50Q329 1367 447.50 1422Q566 1477 712 1477Q861 1477 980.50 1422Q1100 1367 1186 1267.50Q1272 1168 1317.50 1033.50Q1363 899 1363 739L1363 717Q1363 556 1317.50 421.50Q1272 287 1186.50 187.50Q1101 88 981 33.50Q861-21 713-21M713 193Q841 193 925 258.50Q1009 324 1050.50 442Q1092 560 1092 717L1092 741Q1092 896 1050 1013Q1008 1130 923.50 1196Q839 1262 712 1262Q588 1262 505 1196.50Q422 1131 380.50 1014Q339 897 339 741L339 717Q339 561 380.50 442.50Q422 324 505.50 258.50Q589 193 713 193M1050 1158L1049 1312Q1150 1312 1185.50 1380Q1221 1448 1220 1575L1441 1575Q1441 1445 1399 1351.50Q1357 1258 1270.50 1208Q1184 1158 1050 1158M877 1572L869 1572L661 1572L387 1838L389 1844L681 1844L877 1572Z"  horiz-adv-x="1426" vert-adv-y="2048"  />

      
      <glyph glyph-name="uni1EDE" unicode="&#x1EDE;" d="M713-21Q567-21 448 33.50Q329 88 243.50 187.50Q158 287 112 421.50Q66 556 66 717L66 739Q66 899 112 1033.50Q158 1168 243.50 1267.50Q329 1367 447.50 1422Q566 1477 712 1477Q861 1477 980.50 1422Q1100 1367 1186 1267.50Q1272 1168 1317.50 1033.50Q1363 899 1363 739L1363 717Q1363 556 1317.50 421.50Q1272 287 1186.50 187.50Q1101 88 981 33.50Q861-21 713-21M713 193Q841 193 925 258.50Q1009 324 1050.50 442Q1092 560 1092 717L1092 741Q1092 896 1050 1013Q1008 1130 923.50 1196Q839 1262 712 1262Q588 1262 505 1196.50Q422 1131 380.50 1014Q339 897 339 741L339 717Q339 561 380.50 442.50Q422 324 505.50 258.50Q589 193 713 193M1050 1158L1049 1312Q1150 1312 1185.50 1380Q1221 1448 1220 1575L1441 1575Q1441 1445 1399 1351.50Q1357 1258 1270.50 1208Q1184 1158 1050 1158M587 1538L575 1677Q649 1680 681 1695Q713 1710 713 1744Q713 1779 674 1795.50Q635 1812 567 1812L574 1939Q751 1939 845.50 1888Q940 1837 940 1749Q940 1684 896.50 1648Q853 1612 790 1603L789 1538L587 1538Z"  horiz-adv-x="1426" vert-adv-y="2048"  />

      
      <glyph glyph-name="uni1EE0" unicode="&#x1EE0;" d="M713-21Q567-21 448 33.50Q329 88 243.50 187.50Q158 287 112 421.50Q66 556 66 717L66 739Q66 899 112 1033.50Q158 1168 243.50 1267.50Q329 1367 447.50 1422Q566 1477 712 1477Q861 1477 980.50 1422Q1100 1367 1186 1267.50Q1272 1168 1317.50 1033.50Q1363 899 1363 739L1363 717Q1363 556 1317.50 421.50Q1272 287 1186.50 187.50Q1101 88 981 33.50Q861-21 713-21M713 193Q841 193 925 258.50Q1009 324 1050.50 442Q1092 560 1092 717L1092 741Q1092 896 1050 1013Q1008 1130 923.50 1196Q839 1262 712 1262Q588 1262 505 1196.50Q422 1131 380.50 1014Q339 897 339 741L339 717Q339 561 380.50 442.50Q422 324 505.50 258.50Q589 193 713 193M1050 1158L1049 1312Q1150 1312 1185.50 1380Q1221 1448 1220 1575L1441 1575Q1441 1445 1399 1351.50Q1357 1258 1270.50 1208Q1184 1158 1050 1158M487 1572L345 1608Q345 1675 376 1731Q407 1787 458 1821Q509 1855 569 1855Q617 1855 668.50 1831Q720 1807 767 1782.50Q814 1758 848 1758Q889 1759 914.50 1790Q940 1821 940 1868L1082 1829Q1082 1761 1051.50 1705Q1021 1649 970 1616Q919 1583 858 1583Q806 1583 754.50 1607.50Q703 1632 657.50 1656.50Q612 1681 578 1681Q537 1681 512 1649Q487 1617 487 1572Z"  horiz-adv-x="1426" vert-adv-y="2048"  />

      
      <glyph glyph-name="uni0150" unicode="&#x0150;" d="M713-21Q567-21 448 33.50Q329 88 243.50 187.50Q158 287 112 421.50Q66 556 66 717L66 739Q66 899 112 1033.50Q158 1168 243.50 1267.50Q329 1367 447.50 1422Q566 1477 712 1477Q861 1477 980.50 1422Q1100 1367 1186 1267.50Q1272 1168 1317.50 1033.50Q1363 899 1363 739L1363 717Q1363 556 1317.50 421.50Q1272 287 1186.50 187.50Q1101 88 981 33.50Q861-21 713-21M713 193Q841 193 925 258.50Q1009 324 1050.50 442Q1092 560 1092 717L1092 741Q1092 896 1050 1013Q1008 1130 923.50 1196Q839 1262 712 1262Q588 1262 505 1196.50Q422 1131 380.50 1014Q339 897 339 741L339 717Q339 561 380.50 442.50Q422 324 505.50 258.50Q589 193 713 193M703 1572L701 1577L941 1844L1208 1844L1210 1838L916 1572L703 1572M380 1572L373 1572L569 1844L819 1844L821 1839L581 1572L380 1572Z"  horiz-adv-x="1426" vert-adv-y="2048"  />

      
      <glyph glyph-name="uni014C" unicode="&#x014C;" d="M713-21Q567-21 448 33.50Q329 88 243.50 187.50Q158 287 112 421.50Q66 556 66 717L66 739Q66 899 112 1033.50Q158 1168 243.50 1267.50Q329 1367 447.50 1422Q566 1477 712 1477Q861 1477 980.50 1422Q1100 1367 1186 1267.50Q1272 1168 1317.50 1033.50Q1363 899 1363 739L1363 717Q1363 556 1317.50 421.50Q1272 287 1186.50 187.50Q1101 88 981 33.50Q861-21 713-21M713 193Q841 193 925 258.50Q1009 324 1050.50 442Q1092 560 1092 717L1092 741Q1092 896 1050 1013Q1008 1130 923.50 1196Q839 1262 712 1262Q588 1262 505 1196.50Q422 1131 380.50 1014Q339 897 339 741L339 717Q339 561 380.50 442.50Q422 324 505.50 258.50Q589 193 713 193M349 1604L349 1774L1078 1774L1078 1604L349 1604Z"  horiz-adv-x="1426" vert-adv-y="2048"  />

      
      <glyph glyph-name="unid8" unicode="&#xd8;" d="M713-21Q567-21 448 33.50Q329 88 243.50 187.50Q158 287 112 421.50Q66 556 66 717L66 739Q66 899 112 1033.50Q158 1168 243.50 1267.50Q329 1367 447.50 1422Q566 1477 712 1477Q861 1477 980.50 1422Q1100 1367 1186 1267.50Q1272 1168 1317.50 1033.50Q1363 899 1363 739L1363 717Q1363 556 1317.50 421.50Q1272 287 1186.50 187.50Q1101 88 981 33.50Q861-21 713-21M713 193Q841 193 925 258.50Q1009 324 1050.50 442Q1092 560 1092 717L1092 741Q1092 896 1050 1013Q1008 1130 923.50 1196Q839 1262 712 1262Q588 1262 505 1196.50Q422 1131 380.50 1014Q339 897 339 741L339 717Q339 561 380.50 442.50Q422 324 505.50 258.50Q589 193 713 193M155-87L1098 1526L1271 1526L327-87L155-87Z"  horiz-adv-x="1426" vert-adv-y="2048"  />

      
      <glyph glyph-name="uni01FE" unicode="&#x01FE;" d="M713-21Q567-21 448 33.50Q329 88 243.50 187.50Q158 287 112 421.50Q66 556 66 717L66 739Q66 899 112 1033.50Q158 1168 243.50 1267.50Q329 1367 447.50 1422Q566 1477 712 1477Q861 1477 980.50 1422Q1100 1367 1186 1267.50Q1272 1168 1317.50 1033.50Q1363 899 1363 739L1363 717Q1363 556 1317.50 421.50Q1272 287 1186.50 187.50Q1101 88 981 33.50Q861-21 713-21M713 193Q841 193 925 258.50Q1009 324 1050.50 442Q1092 560 1092 717L1092 741Q1092 896 1050 1013Q1008 1130 923.50 1196Q839 1262 712 1262Q588 1262 505 1196.50Q422 1131 380.50 1014Q339 897 339 741L339 717Q339 561 380.50 442.50Q422 324 505.50 258.50Q589 193 713 193M155-87L1098 1526L1271 1526L327-87L155-87M550 1572L746 1844L1038 1844L1040 1838L766 1572L558 1572L550 1572Z"  horiz-adv-x="1426" vert-adv-y="2048"  />

      
      <glyph glyph-name="unid5" unicode="&#xd5;" d="M713-21Q567-21 448 33.50Q329 88 243.50 187.50Q158 287 112 421.50Q66 556 66 717L66 739Q66 899 112 1033.50Q158 1168 243.50 1267.50Q329 1367 447.50 1422Q566 1477 712 1477Q861 1477 980.50 1422Q1100 1367 1186 1267.50Q1272 1168 1317.50 1033.50Q1363 899 1363 739L1363 717Q1363 556 1317.50 421.50Q1272 287 1186.50 187.50Q1101 88 981 33.50Q861-21 713-21M713 193Q841 193 925 258.50Q1009 324 1050.50 442Q1092 560 1092 717L1092 741Q1092 896 1050 1013Q1008 1130 923.50 1196Q839 1262 712 1262Q588 1262 505 1196.50Q422 1131 380.50 1014Q339 897 339 741L339 717Q339 561 380.50 442.50Q422 324 505.50 258.50Q589 193 713 193M487 1572L345 1608Q345 1675 376 1731Q407 1787 458 1821Q509 1855 569 1855Q617 1855 668.50 1831Q720 1807 767 1782.50Q814 1758 848 1758Q889 1759 914.50 1790Q940 1821 940 1868L1082 1829Q1082 1761 1051.50 1705Q1021 1649 970 1616Q919 1583 858 1583Q806 1583 754.50 1607.50Q703 1632 657.50 1656.50Q612 1681 578 1681Q537 1681 512 1649Q487 1617 487 1572Z"  horiz-adv-x="1426" vert-adv-y="2048"  />

      
      <glyph glyph-name="uni0152" unicode="&#x0152;" d="M743-21Q588-21 463 33.50Q338 88 249 187.50Q160 287 113 421.50Q66 556 66 717L66 739Q66 899 113 1033.50Q160 1168 248.50 1267.50Q337 1367 461.50 1422Q586 1477 742 1477Q825 1477 911 1463Q997 1449 1085 1423L1085 1156Q1011 1207 922 1234.50Q833 1262 742 1262Q605 1262 515 1196.50Q425 1131 382 1014Q339 897 339 741L339 717Q339 561 382.50 442.50Q426 324 516 258.50Q606 193 743 193Q833 193 921 218.50Q1009 244 1085 290L1085 33Q997 7 911-7Q825-21 743-21M861 0L924 183L924 1272L861 1456L1911 1456L1911 1068L1699 1068L1685 1246L1196 1246L1196 858L1703 858L1703 647L1196 647L1196 209L1691 209L1704 387L1915 387L1915 0L861 0Z"  horiz-adv-x="2020" vert-adv-y="2048"  />

      
      <glyph glyph-name="uni50" unicode="&#x50;" d="M61 0L61 164L218 194L218 1261L61 1291L61 1456L218 1456L749 1456Q914 1456 1032.50 1398.50Q1151 1341 1215 1237.50Q1279 1134 1279 997Q1279 859 1215 756.50Q1151 654 1032.50 597Q914 540 749 540L490 540L490 194L647 164L647 0L61 0M490 750L749 750Q877 750 942 819Q1007 888 1007 995Q1007 1103 942 1174.50Q877 1246 749 1246L490 1246L490 750Z"  horiz-adv-x="1319" vert-adv-y="2048"  />

      
      <glyph glyph-name="unide" unicode="&#xde;" d="M68 0L68 164L225 194L225 1261L68 1291L68 1456L497 1456L654 1456L654 1291L497 1261L497 1161L718 1161Q964 1161 1101.50 1044Q1239 927 1239 738Q1239 548 1101.50 430.50Q964 313 718 313L497 313L497 194L654 164L654 0L68 0M497 518L718 518Q801 518 856 547Q911 576 939 625Q967 674 967 736Q967 797 939 847.50Q911 898 856 927Q801 956 718 956L497 956L497 518Z"  horiz-adv-x="1288" vert-adv-y="2048"  />

      
      <glyph glyph-name="uni51" unicode="&#x51;" d="M1281-273L883 0Q841-9 799-15Q757-21 714-21Q569-21 449.50 33.50Q330 88 244.50 187.50Q159 287 113.50 421.50Q68 556 68 717L68 739Q68 899 113.50 1033.50Q159 1168 244 1268Q329 1368 448.50 1422.50Q568 1477 713 1477Q861 1477 981 1422.50Q1101 1368 1187 1268Q1273 1168 1318.50 1033.50Q1364 899 1364 739L1364 717Q1364 526 1300 368.50Q1236 211 1112 112L1418-83L1281-273M714 193Q842 193 926 258.50Q1010 324 1051.50 442Q1093 560 1093 717L1093 741Q1093 896 1051 1013Q1009 1130 925 1196Q841 1262 713 1262Q589 1262 506 1196.50Q423 1131 381.50 1014Q340 897 340 741L340 717Q340 561 381.50 442.50Q423 324 507 258.50Q591 193 714 193Z"  horiz-adv-x="1433" vert-adv-y="2048"  />

      
      <glyph glyph-name="uni52" unicode="&#x52;" d="M61 0L61 164L218 194L218 1261L61 1291L61 1456L743 1456Q908 1456 1026.50 1405Q1145 1354 1207.50 1258Q1270 1162 1270 1028Q1270 900 1208 802Q1146 704 1034.50 648.50Q923 593 776 592L490 591L490 194L647 164L647 0L61 0M1003 0L741 650L991 701L1215 192L1334 166L1334 0L1003 0M490 801L734 801Q869 801 934 856.50Q999 912 999 1018Q999 1122 935 1184Q871 1246 743 1246L490 1246L490 801Z"  horiz-adv-x="1403" vert-adv-y="2048"  />

      
      <glyph glyph-name="uni0154" unicode="&#x0154;" d="M61 0L61 164L218 194L218 1261L61 1291L61 1456L743 1456Q908 1456 1026.50 1405Q1145 1354 1207.50 1258Q1270 1162 1270 1028Q1270 900 1208 802Q1146 704 1034.50 648.50Q923 593 776 592L490 591L490 194L647 164L647 0L61 0M1003 0L741 650L991 701L1215 192L1334 166L1334 0L1003 0M490 801L734 801Q869 801 934 856.50Q999 912 999 1018Q999 1122 935 1184Q871 1246 743 1246L490 1246L490 801M535 1572L731 1844L1023 1844L1025 1838L751 1572L543 1572L535 1572Z"  horiz-adv-x="1403" vert-adv-y="2048"  />

      
      <glyph glyph-name="uni0158" unicode="&#x0158;" d="M61 0L61 164L218 194L218 1261L61 1291L61 1456L743 1456Q908 1456 1026.50 1405Q1145 1354 1207.50 1258Q1270 1162 1270 1028Q1270 900 1208 802Q1146 704 1034.50 648.50Q923 593 776 592L490 591L490 194L647 164L647 0L61 0M1003 0L741 650L991 701L1215 192L1334 166L1334 0L1003 0M490 801L734 801Q869 801 934 856.50Q999 912 999 1018Q999 1122 935 1184Q871 1246 743 1246L490 1246L490 801M1048 1844L1048 1818L795 1576L600 1576L348 1820L348 1844L562 1844L698 1699L837 1844L1048 1844Z"  horiz-adv-x="1403" vert-adv-y="2048"  />

      
      <glyph glyph-name="uni0156" unicode="&#x0156;" d="M61 0L61 164L218 194L218 1261L61 1291L61 1456L743 1456Q908 1456 1026.50 1405Q1145 1354 1207.50 1258Q1270 1162 1270 1028Q1270 900 1208 802Q1146 704 1034.50 648.50Q923 593 776 592L490 591L490 194L647 164L647 0L61 0M1003 0L741 650L991 701L1215 192L1334 166L1334 0L1003 0M490 801L734 801Q869 801 934 856.50Q999 912 999 1018Q999 1122 935 1184Q871 1246 743 1246L490 1246L490 801M655-533L531-447Q564-398 580.50-348.50Q597-299 597-228L597-134L829-134L829-216Q829-310 782-392.50Q735-475 655-533Z"  horiz-adv-x="1403" vert-adv-y="2048"  />

      
      <glyph glyph-name="uni53" unicode="&#x53;" d="M641-21Q486-21 355.50 15.50Q225 52 101 139L101 483L311 483L343 271Q392 233 470.50 210Q549 187 641 187Q725 187 782.50 210.50Q840 234 870 277.50Q900 321 900 379Q900 435 873 477.50Q846 520 784.50 554.50Q723 589 618 620Q450 667 338 727Q226 787 170.50 871.50Q115 956 115 1073Q115 1190 179.50 1280.50Q244 1371 358.50 1423Q473 1475 622 1476Q788 1478 915 1435Q1042 1392 1132 1319L1132 999L927 999L890 1200Q850 1227 785 1246Q720 1265 635 1265Q562 1265 506 1242.50Q450 1220 418 1177Q386 1134 386 1074Q386 1022 414 983Q442 944 508 911Q574 878 687 843Q926 778 1049.50 667.50Q1173 557 1173 381Q1173 259 1106.50 168.50Q1040 78 920.50 28.50Q801-21 641-21Z"  horiz-adv-x="1238" vert-adv-y="2048"  />

      
      <glyph glyph-name="uni015A" unicode="&#x015A;" d="M641-21Q486-21 355.50 15.50Q225 52 101 139L101 483L311 483L343 271Q392 233 470.50 210Q549 187 641 187Q725 187 782.50 210.50Q840 234 870 277.50Q900 321 900 379Q900 435 873 477.50Q846 520 784.50 554.50Q723 589 618 620Q450 667 338 727Q226 787 170.50 871.50Q115 956 115 1073Q115 1190 179.50 1280.50Q244 1371 358.50 1423Q473 1475 622 1476Q788 1478 915 1435Q1042 1392 1132 1319L1132 999L927 999L890 1200Q850 1227 785 1246Q720 1265 635 1265Q562 1265 506 1242.50Q450 1220 418 1177Q386 1134 386 1074Q386 1022 414 983Q442 944 508 911Q574 878 687 843Q926 778 1049.50 667.50Q1173 557 1173 381Q1173 259 1106.50 168.50Q1040 78 920.50 28.50Q801-21 641-21M456 1572L652 1844L944 1844L946 1838L672 1572L464 1572L456 1572Z"  horiz-adv-x="1238" vert-adv-y="2048"  />

      
      <glyph glyph-name="uni0160" unicode="&#x0160;" d="M641-21Q486-21 355.50 15.50Q225 52 101 139L101 483L311 483L343 271Q392 233 470.50 210Q549 187 641 187Q725 187 782.50 210.50Q840 234 870 277.50Q900 321 900 379Q900 435 873 477.50Q846 520 784.50 554.50Q723 589 618 620Q450 667 338 727Q226 787 170.50 871.50Q115 956 115 1073Q115 1190 179.50 1280.50Q244 1371 358.50 1423Q473 1475 622 1476Q788 1478 915 1435Q1042 1392 1132 1319L1132 999L927 999L890 1200Q850 1227 785 1246Q720 1265 635 1265Q562 1265 506 1242.50Q450 1220 418 1177Q386 1134 386 1074Q386 1022 414 983Q442 944 508 911Q574 878 687 843Q926 778 1049.50 667.50Q1173 557 1173 381Q1173 259 1106.50 168.50Q1040 78 920.50 28.50Q801-21 641-21M969 1844L969 1818L716 1576L521 1576L269 1820L269 1844L483 1844L619 1699L758 1844L969 1844Z"  horiz-adv-x="1238" vert-adv-y="2048"  />

      
      <glyph glyph-name="uni015E" unicode="&#x015E;" d="M641-21Q486-21 355.50 15.50Q225 52 101 139L101 483L311 483L343 271Q392 233 470.50 210Q549 187 641 187Q725 187 782.50 210.50Q840 234 870 277.50Q900 321 900 379Q900 435 873 477.50Q846 520 784.50 554.50Q723 589 618 620Q450 667 338 727Q226 787 170.50 871.50Q115 956 115 1073Q115 1190 179.50 1280.50Q244 1371 358.50 1423Q473 1475 622 1476Q788 1478 915 1435Q1042 1392 1132 1319L1132 999L927 999L890 1200Q850 1227 785 1246Q720 1265 635 1265Q562 1265 506 1242.50Q450 1220 418 1177Q386 1134 386 1074Q386 1022 414 983Q442 944 508 911Q574 878 687 843Q926 778 1049.50 667.50Q1173 557 1173 381Q1173 259 1106.50 168.50Q1040 78 920.50 28.50Q801-21 641-21M505-454L498-305Q561-305 598-284.50Q635-264 635-222Q635-179 599.50-162Q564-145 486-140L521 21L721 21L706-56Q773-67 817.50-107Q862-147 862-225Q862-329 769-391.50Q676-454 505-454Z"  horiz-adv-x="1238" vert-adv-y="2048"  />

      
      <glyph glyph-name="uni015C" unicode="&#x015C;" d="M641-21Q486-21 355.50 15.50Q225 52 101 139L101 483L311 483L343 271Q392 233 470.50 210Q549 187 641 187Q725 187 782.50 210.50Q840 234 870 277.50Q900 321 900 379Q900 435 873 477.50Q846 520 784.50 554.50Q723 589 618 620Q450 667 338 727Q226 787 170.50 871.50Q115 956 115 1073Q115 1190 179.50 1280.50Q244 1371 358.50 1423Q473 1475 622 1476Q788 1478 915 1435Q1042 1392 1132 1319L1132 999L927 999L890 1200Q850 1227 785 1246Q720 1265 635 1265Q562 1265 506 1242.50Q450 1220 418 1177Q386 1134 386 1074Q386 1022 414 983Q442 944 508 911Q574 878 687 843Q926 778 1049.50 667.50Q1173 557 1173 381Q1173 259 1106.50 168.50Q1040 78 920.50 28.50Q801-21 641-21M269 1576L269 1602L522 1844L717 1844L969 1600L969 1576L755 1576L619 1721L480 1576L269 1576Z"  horiz-adv-x="1238" vert-adv-y="2048"  />

      
      <glyph glyph-name="uni0218" unicode="&#x0218;" d="M641-21Q486-21 355.50 15.50Q225 52 101 139L101 483L311 483L343 271Q392 233 470.50 210Q549 187 641 187Q725 187 782.50 210.50Q840 234 870 277.50Q900 321 900 379Q900 435 873 477.50Q846 520 784.50 554.50Q723 589 618 620Q450 667 338 727Q226 787 170.50 871.50Q115 956 115 1073Q115 1190 179.50 1280.50Q244 1371 358.50 1423Q473 1475 622 1476Q788 1478 915 1435Q1042 1392 1132 1319L1132 999L927 999L890 1200Q850 1227 785 1246Q720 1265 635 1265Q562 1265 506 1242.50Q450 1220 418 1177Q386 1134 386 1074Q386 1022 414 983Q442 944 508 911Q574 878 687 843Q926 778 1049.50 667.50Q1173 557 1173 381Q1173 259 1106.50 168.50Q1040 78 920.50 28.50Q801-21 641-21M572-533L448-447Q481-398 497.50-348.50Q514-299 514-228L514-134L746-134L746-216Q746-310 699-392.50Q652-475 572-533Z"  horiz-adv-x="1238" vert-adv-y="2048"  />

      
      <glyph glyph-name="uni1E9E" unicode="&#x1E9E;" d="M61 0L61 164L218 194L218 1261L61 1291L61 1456L1358 1456L1358 1248L490 1248L490 194L647 164L647 0L61 0M951-21Q899-21 851-14Q803-7 766 3L829 213Q855 202 885.50 195.50Q916 189 949 189Q1050 189 1109 255Q1168 321 1168 444Q1168 574 1102.50 645Q1037 716 920 716L768 716L768 891L1139 1341L1358 1248L1031 861L963 900Q1104 902 1211.50 844Q1319 786 1379 679.50Q1439 573 1439 430Q1439 289 1379 188Q1319 87 1209.50 33Q1100-21 951-21Z"  horiz-adv-x="1464" vert-adv-y="2048"  />

      
      <glyph glyph-name="uni018F" unicode="&#x018F;" d="M699-21Q497-21 356.50 60.50Q216 142 143.50 294Q71 446 71 657L71 798L1031 798L1033 828Q1035 952 990.50 1047.50Q946 1143 853 1198Q760 1253 616 1253Q498 1253 406.50 1233Q315 1213 238 1183L189 1391Q243 1420 352.50 1448.50Q462 1477 616 1477Q837 1477 992 1393.50Q1147 1310 1228 1159.50Q1309 1009 1309 807L1309 645Q1309 451 1228 300.50Q1147 150 1009 64.50Q871-21 699-21M699 202Q799 202 871 252Q943 302 984 389.50Q1025 477 1031 592L1029 596L343 596L343 565Q343 455 380 373Q417 291 495.50 246.50Q574 202 699 202Z"  horiz-adv-x="1401" vert-adv-y="2048"  />

      
      <glyph glyph-name="uni54" unicode="&#x54;" d="M402 0L402 164L559 194L559 1247L280 1247L261 1067L56 1067L56 1456L1336 1456L1336 1067L1130 1067L1111 1247L831 1247L831 194L989 164L989 0L402 0Z"  horiz-adv-x="1393" vert-adv-y="2048"  />

      
      <glyph glyph-name="uni0166" unicode="&#x0166;" d="M402 0L402 164L559 194L559 1247L280 1247L261 1067L56 1067L56 1456L1336 1456L1336 1067L1130 1067L1111 1247L831 1247L831 194L989 164L989 0L402 0M373 652L373 807L1020 807L1020 652L373 652Z"  horiz-adv-x="1393" vert-adv-y="2048"  />

      
      <glyph glyph-name="uni0164" unicode="&#x0164;" d="M402 0L402 164L559 194L559 1247L280 1247L261 1067L56 1067L56 1456L1336 1456L1336 1067L1130 1067L1111 1247L831 1247L831 194L989 164L989 0L402 0M1046 1844L1046 1818L793 1576L598 1576L346 1820L346 1844L560 1844L696 1699L835 1844L1046 1844Z"  horiz-adv-x="1393" vert-adv-y="2048"  />

      
      <glyph glyph-name="uni0162" unicode="&#x0162;" d="M402 0L402 164L559 194L559 1247L280 1247L261 1067L56 1067L56 1456L1336 1456L1336 1067L1130 1067L1111 1247L831 1247L831 194L989 164L989 0L402 0M583-454L576-305Q639-305 676-284.50Q713-264 713-222Q713-179 677.50-162Q642-145 564-140L599 21L799 21L784-56Q851-67 895.50-107Q940-147 940-225Q940-329 847-391.50Q754-454 583-454Z"  horiz-adv-x="1393" vert-adv-y="2048"  />

      
      <glyph glyph-name="uni021A" unicode="&#x021A;" d="M402 0L402 164L559 194L559 1247L280 1247L261 1067L56 1067L56 1456L1336 1456L1336 1067L1130 1067L1111 1247L831 1247L831 194L989 164L989 0L402 0M650-533L526-447Q559-398 575.50-348.50Q592-299 592-228L592-134L824-134L824-216Q824-310 777-392.50Q730-475 650-533Z"  horiz-adv-x="1393" vert-adv-y="2048"  />

      
      <glyph glyph-name="uni55" unicode="&#x55;" d="M772-21Q603-21 474.50 38.50Q346 98 274 211.50Q202 325 202 486L202 1261L46 1291L46 1456L631 1456L631 1291L474 1261L474 486Q474 387 510.50 321Q547 255 614 222Q681 189 772 189Q865 189 933 221.50Q1001 254 1037.50 320Q1074 386 1074 486L1074 1261L917 1291L917 1456L1503 1456L1503 1291L1346 1261L1346 486Q1346 324 1274 210.50Q1202 97 1073 38Q944-21 772-21Z"  horiz-adv-x="1548" vert-adv-y="2048"  />

      
      <glyph glyph-name="unida" unicode="&#xda;" d="M772-21Q603-21 474.50 38.50Q346 98 274 211.50Q202 325 202 486L202 1261L46 1291L46 1456L631 1456L631 1291L474 1261L474 486Q474 387 510.50 321Q547 255 614 222Q681 189 772 189Q865 189 933 221.50Q1001 254 1037.50 320Q1074 386 1074 486L1074 1261L917 1291L917 1456L1503 1456L1503 1291L1346 1261L1346 486Q1346 324 1274 210.50Q1202 97 1073 38Q944-21 772-21M611 1572L807 1844L1099 1844L1101 1838L827 1572L619 1572L611 1572Z"  horiz-adv-x="1548" vert-adv-y="2048"  />

      
      <glyph glyph-name="uni016C" unicode="&#x016C;" d="M772-21Q603-21 474.50 38.50Q346 98 274 211.50Q202 325 202 486L202 1261L46 1291L46 1456L631 1456L631 1291L474 1261L474 486Q474 387 510.50 321Q547 255 614 222Q681 189 772 189Q865 189 933 221.50Q1001 254 1037.50 320Q1074 386 1074 486L1074 1261L917 1291L917 1456L1503 1456L1503 1291L1346 1261L1346 486Q1346 324 1274 210.50Q1202 97 1073 38Q944-21 772-21M775 1549Q617 1549 524.50 1630Q432 1711 435 1838L437 1844L625 1844Q625 1783 661 1743.50Q697 1704 775 1704Q850 1704 886.50 1743Q923 1782 923 1844L1111 1844L1113 1838Q1115 1711 1023.50 1630Q932 1549 775 1549Z"  horiz-adv-x="1548" vert-adv-y="2048"  />

      
      <glyph glyph-name="unidb" unicode="&#xdb;" d="M772-21Q603-21 474.50 38.50Q346 98 274 211.50Q202 325 202 486L202 1261L46 1291L46 1456L631 1456L631 1291L474 1261L474 486Q474 387 510.50 321Q547 255 614 222Q681 189 772 189Q865 189 933 221.50Q1001 254 1037.50 320Q1074 386 1074 486L1074 1261L917 1291L917 1456L1503 1456L1503 1291L1346 1261L1346 486Q1346 324 1274 210.50Q1202 97 1073 38Q944-21 772-21M424 1576L424 1602L677 1844L872 1844L1124 1600L1124 1576L910 1576L774 1721L635 1576L424 1576Z"  horiz-adv-x="1548" vert-adv-y="2048"  />

      
      <glyph glyph-name="unidc" unicode="&#xdc;" d="M772-21Q603-21 474.50 38.50Q346 98 274 211.50Q202 325 202 486L202 1261L46 1291L46 1456L631 1456L631 1291L474 1261L474 486Q474 387 510.50 321Q547 255 614 222Q681 189 772 189Q865 189 933 221.50Q1001 254 1037.50 320Q1074 386 1074 486L1074 1261L917 1291L917 1456L1503 1456L1503 1291L1346 1261L1346 486Q1346 324 1274 210.50Q1202 97 1073 38Q944-21 772-21M864 1603L864 1844L1130 1844L1130 1603L864 1603M419 1603L419 1844L684 1844L684 1603L419 1603Z"  horiz-adv-x="1548" vert-adv-y="2048"  />

      
      <glyph glyph-name="uni1EE4" unicode="&#x1EE4;" d="M772-21Q603-21 474.50 38.50Q346 98 274 211.50Q202 325 202 486L202 1261L46 1291L46 1456L631 1456L631 1291L474 1261L474 486Q474 387 510.50 321Q547 255 614 222Q681 189 772 189Q865 189 933 221.50Q1001 254 1037.50 320Q1074 386 1074 486L1074 1261L917 1291L917 1456L1503 1456L1503 1291L1346 1261L1346 486Q1346 324 1274 210.50Q1202 97 1073 38Q944-21 772-21M633-407L633-166L915-166L915-407L633-407Z"  horiz-adv-x="1548" vert-adv-y="2048"  />

      
      <glyph glyph-name="unid9" unicode="&#xd9;" d="M772-21Q603-21 474.50 38.50Q346 98 274 211.50Q202 325 202 486L202 1261L46 1291L46 1456L631 1456L631 1291L474 1261L474 486Q474 387 510.50 321Q547 255 614 222Q681 189 772 189Q865 189 933 221.50Q1001 254 1037.50 320Q1074 386 1074 486L1074 1261L917 1291L917 1456L1503 1456L1503 1291L1346 1261L1346 486Q1346 324 1274 210.50Q1202 97 1073 38Q944-21 772-21M937 1572L929 1572L721 1572L447 1838L449 1844L741 1844L937 1572Z"  horiz-adv-x="1548" vert-adv-y="2048"  />

      
      <glyph glyph-name="uni1EE6" unicode="&#x1EE6;" d="M772-21Q603-21 474.50 38.50Q346 98 274 211.50Q202 325 202 486L202 1261L46 1291L46 1456L631 1456L631 1291L474 1261L474 486Q474 387 510.50 321Q547 255 614 222Q681 189 772 189Q865 189 933 221.50Q1001 254 1037.50 320Q1074 386 1074 486L1074 1261L917 1291L917 1456L1503 1456L1503 1291L1346 1261L1346 486Q1346 324 1274 210.50Q1202 97 1073 38Q944-21 772-21M648 1538L636 1677Q710 1680 742 1695Q774 1710 774 1744Q774 1779 735 1795.50Q696 1812 628 1812L635 1939Q812 1939 906.50 1888Q1001 1837 1001 1749Q1001 1684 957.50 1648Q914 1612 851 1603L850 1538L648 1538Z"  horiz-adv-x="1548" vert-adv-y="2048"  />

      
      <glyph glyph-name="uni01AF" unicode="&#x01AF;" d="M776-21Q605-21 475.50 38Q346 97 274 210.50Q202 324 202 486L202 1261L46 1291L46 1456L632 1456L632 1291L475 1261L475 486Q475 387 512 320.50Q549 254 616.50 221Q684 188 776 188Q871 188 939.50 221Q1008 254 1045.50 320Q1083 386 1083 486L1083 1261L926 1291L926 1456L1356 1456L1356 486Q1356 324 1282.50 210.50Q1209 97 1079 38Q949-21 776-21M1320 1038L1324 1215Q1442 1212 1482.50 1281.50Q1523 1351 1523 1504L1744 1504L1744 1499Q1747 1274 1649.50 1158Q1552 1042 1320 1038Z"  horiz-adv-x="1763" vert-adv-y="2048"  />

      
      <glyph glyph-name="uni1EE8" unicode="&#x1EE8;" d="M776-21Q605-21 475.50 38Q346 97 274 210.50Q202 324 202 486L202 1261L46 1291L46 1456L632 1456L632 1291L475 1261L475 486Q475 387 512 320.50Q549 254 616.50 221Q684 188 776 188Q871 188 939.50 221Q1008 254 1045.50 320Q1083 386 1083 486L1083 1261L926 1291L926 1456L1356 1456L1356 486Q1356 324 1282.50 210.50Q1209 97 1079 38Q949-21 776-21M1320 1038L1324 1215Q1442 1212 1482.50 1281.50Q1523 1351 1523 1504L1744 1504L1744 1499Q1747 1274 1649.50 1158Q1552 1042 1320 1038M616 1572L812 1844L1104 1844L1106 1838L832 1572L624 1572L616 1572Z"  horiz-adv-x="1763" vert-adv-y="2048"  />

      
      <glyph glyph-name="uni1EF0" unicode="&#x1EF0;" d="M776-21Q605-21 475.50 38Q346 97 274 210.50Q202 324 202 486L202 1261L46 1291L46 1456L632 1456L632 1291L475 1261L475 486Q475 387 512 320.50Q549 254 616.50 221Q684 188 776 188Q871 188 939.50 221Q1008 254 1045.50 320Q1083 386 1083 486L1083 1261L926 1291L926 1456L1356 1456L1356 486Q1356 324 1282.50 210.50Q1209 97 1079 38Q949-21 776-21M1320 1038L1324 1215Q1442 1212 1482.50 1281.50Q1523 1351 1523 1504L1744 1504L1744 1499Q1747 1274 1649.50 1158Q1552 1042 1320 1038M636-407L636-166L918-166L918-407L636-407Z"  horiz-adv-x="1763" vert-adv-y="2048"  />

      
      <glyph glyph-name="uni1EEA" unicode="&#x1EEA;" d="M776-21Q605-21 475.50 38Q346 97 274 210.50Q202 324 202 486L202 1261L46 1291L46 1456L632 1456L632 1291L475 1261L475 486Q475 387 512 320.50Q549 254 616.50 221Q684 188 776 188Q871 188 939.50 221Q1008 254 1045.50 320Q1083 386 1083 486L1083 1261L926 1291L926 1456L1356 1456L1356 486Q1356 324 1282.50 210.50Q1209 97 1079 38Q949-21 776-21M1320 1038L1324 1215Q1442 1212 1482.50 1281.50Q1523 1351 1523 1504L1744 1504L1744 1499Q1747 1274 1649.50 1158Q1552 1042 1320 1038M943 1572L935 1572L727 1572L453 1838L455 1844L747 1844L943 1572Z"  horiz-adv-x="1763" vert-adv-y="2048"  />

      
      <glyph glyph-name="uni1EEC" unicode="&#x1EEC;" d="M776-21Q605-21 475.50 38Q346 97 274 210.50Q202 324 202 486L202 1261L46 1291L46 1456L632 1456L632 1291L475 1261L475 486Q475 387 512 320.50Q549 254 616.50 221Q684 188 776 188Q871 188 939.50 221Q1008 254 1045.50 320Q1083 386 1083 486L1083 1261L926 1291L926 1456L1356 1456L1356 486Q1356 324 1282.50 210.50Q1209 97 1079 38Q949-21 776-21M1320 1038L1324 1215Q1442 1212 1482.50 1281.50Q1523 1351 1523 1504L1744 1504L1744 1499Q1747 1274 1649.50 1158Q1552 1042 1320 1038M653 1538L641 1677Q715 1680 747 1695Q779 1710 779 1744Q779 1779 740 1795.50Q701 1812 633 1812L640 1939Q817 1939 911.50 1888Q1006 1837 1006 1749Q1006 1684 962.50 1648Q919 1612 856 1603L855 1538L653 1538Z"  horiz-adv-x="1763" vert-adv-y="2048"  />

      
      <glyph glyph-name="uni1EEE" unicode="&#x1EEE;" d="M776-21Q605-21 475.50 38Q346 97 274 210.50Q202 324 202 486L202 1261L46 1291L46 1456L632 1456L632 1291L475 1261L475 486Q475 387 512 320.50Q549 254 616.50 221Q684 188 776 188Q871 188 939.50 221Q1008 254 1045.50 320Q1083 386 1083 486L1083 1261L926 1291L926 1456L1356 1456L1356 486Q1356 324 1282.50 210.50Q1209 97 1079 38Q949-21 776-21M1320 1038L1324 1215Q1442 1212 1482.50 1281.50Q1523 1351 1523 1504L1744 1504L1744 1499Q1747 1274 1649.50 1158Q1552 1042 1320 1038M552 1572L410 1608Q410 1675 441 1731Q472 1787 523 1821Q574 1855 634 1855Q682 1855 733.50 1831Q785 1807 832 1782.50Q879 1758 913 1758Q954 1759 979.50 1790Q1005 1821 1005 1868L1147 1829Q1147 1761 1116.50 1705Q1086 1649 1035 1616Q984 1583 923 1583Q871 1583 819.50 1607.50Q768 1632 722.50 1656.50Q677 1681 643 1681Q602 1681 577 1649Q552 1617 552 1572Z"  horiz-adv-x="1763" vert-adv-y="2048"  />

      
      <glyph glyph-name="uni0170" unicode="&#x0170;" d="M772-21Q603-21 474.50 38.50Q346 98 274 211.50Q202 325 202 486L202 1261L46 1291L46 1456L631 1456L631 1291L474 1261L474 486Q474 387 510.50 321Q547 255 614 222Q681 189 772 189Q865 189 933 221.50Q1001 254 1037.50 320Q1074 386 1074 486L1074 1261L917 1291L917 1456L1503 1456L1503 1291L1346 1261L1346 486Q1346 324 1274 210.50Q1202 97 1073 38Q944-21 772-21M763 1572L761 1577L1001 1844L1268 1844L1270 1838L976 1572L763 1572M440 1572L433 1572L629 1844L879 1844L881 1839L641 1572L440 1572Z"  horiz-adv-x="1548" vert-adv-y="2048"  />

      
      <glyph glyph-name="uni016A" unicode="&#x016A;" d="M772-21Q603-21 474.50 38.50Q346 98 274 211.50Q202 325 202 486L202 1261L46 1291L46 1456L631 1456L631 1291L474 1261L474 486Q474 387 510.50 321Q547 255 614 222Q681 189 772 189Q865 189 933 221.50Q1001 254 1037.50 320Q1074 386 1074 486L1074 1261L917 1291L917 1456L1503 1456L1503 1291L1346 1261L1346 486Q1346 324 1274 210.50Q1202 97 1073 38Q944-21 772-21M409 1604L409 1774L1138 1774L1138 1604L409 1604Z"  horiz-adv-x="1548" vert-adv-y="2048"  />

      
      <glyph glyph-name="uni0172" unicode="&#x0172;" d="M772-21Q603-21 474.50 38.50Q346 98 274 211.50Q202 325 202 486L202 1261L46 1291L46 1456L631 1456L631 1291L474 1261L474 486Q474 387 510.50 321Q547 255 614 222Q681 189 772 189Q865 189 933 221.50Q1001 254 1037.50 320Q1074 386 1074 486L1074 1261L917 1291L917 1456L1503 1456L1503 1291L1346 1261L1346 486Q1346 324 1274 210.50Q1202 97 1073 38Q944-21 772-21M835-426Q724-426 655-369Q586-312 586-209Q586-134 641-62.50Q696 9 822 59L936 0Q864-47 829.50-88.50Q795-130 795-177Q795-215 816-235Q837-255 884-255Q908-255 929-250Q950-245 970-237L1005-385Q970-402 929-414Q888-426 835-426Z"  horiz-adv-x="1548" vert-adv-y="2048"  />

      
      <glyph glyph-name="uni016E" unicode="&#x016E;" d="M772-21Q603-21 474.50 38.50Q346 98 274 211.50Q202 325 202 486L202 1261L46 1291L46 1456L631 1456L631 1291L474 1261L474 486Q474 387 510.50 321Q547 255 614 222Q681 189 772 189Q865 189 933 221.50Q1001 254 1037.50 320Q1074 386 1074 486L1074 1261L917 1291L917 1456L1503 1456L1503 1291L1346 1261L1346 486Q1346 324 1274 210.50Q1202 97 1073 38Q944-21 772-21M776 1511Q679 1511 613 1570Q547 1629 547 1722Q547 1812 613.50 1874Q680 1936 776 1936Q871 1936 936 1874Q1001 1812 1001 1722Q1001 1629 936 1570Q871 1511 776 1511M776 1623Q817 1623 844 1650Q871 1677 871 1722Q871 1766 844 1794Q817 1822 776 1822Q734 1822 705.50 1794Q677 1766 677 1722Q677 1679 705.50 1651Q734 1623 776 1623Z"  horiz-adv-x="1548" vert-adv-y="2048"  />

      
      <glyph glyph-name="uni0168" unicode="&#x0168;" d="M772-21Q603-21 474.50 38.50Q346 98 274 211.50Q202 325 202 486L202 1261L46 1291L46 1456L631 1456L631 1291L474 1261L474 486Q474 387 510.50 321Q547 255 614 222Q681 189 772 189Q865 189 933 221.50Q1001 254 1037.50 320Q1074 386 1074 486L1074 1261L917 1291L917 1456L1503 1456L1503 1291L1346 1261L1346 486Q1346 324 1274 210.50Q1202 97 1073 38Q944-21 772-21M547 1572L405 1608Q405 1675 436 1731Q467 1787 518 1821Q569 1855 629 1855Q677 1855 728.50 1831Q780 1807 827 1782.50Q874 1758 908 1758Q949 1759 974.50 1790Q1000 1821 1000 1868L1142 1829Q1142 1761 1111.50 1705Q1081 1649 1030 1616Q979 1583 918 1583Q866 1583 814.50 1607.50Q763 1632 717.50 1656.50Q672 1681 638 1681Q597 1681 572 1649Q547 1617 547 1572Z"  horiz-adv-x="1548" vert-adv-y="2048"  />

      
      <glyph glyph-name="uni56" unicode="&#x56;" d="M640 0L167 1275L41 1291L41 1456L595 1456L595 1291L463 1270L757 397L782 310L788 310L813 395L1109 1271L957 1291L957 1456L1490 1456L1490 1291L1361 1275L912 0L640 0Z"  horiz-adv-x="1529" vert-adv-y="2048"  />

      
      <glyph glyph-name="uni57" unicode="&#x57;" d="M524 0L186 1276L42 1291L42 1456L604 1456L604 1291L448 1268L623 540L657 398L663 397L704 540L993 1456L1200 1456L1498 520L1537 387L1543 387L1578 520L1757 1268L1593 1291L1593 1456L2144 1456L2144 1291L2010 1276L1672 0L1423 0L1139 884L1103 1010L1097 1010L1058 881L771 0L524 0Z"  horiz-adv-x="2186" vert-adv-y="2048"  />

      
      <glyph glyph-name="uni1E82" unicode="&#x1E82;" d="M524 0L186 1276L42 1291L42 1456L604 1456L604 1291L448 1268L623 540L657 398L663 397L704 540L993 1456L1200 1456L1498 520L1537 387L1543 387L1578 520L1757 1268L1593 1291L1593 1456L2144 1456L2144 1291L2010 1276L1672 0L1423 0L1139 884L1103 1010L1097 1010L1058 881L771 0L524 0M930 1572L1126 1844L1418 1844L1420 1838L1146 1572L938 1572L930 1572Z"  horiz-adv-x="2186" vert-adv-y="2048"  />

      
      <glyph glyph-name="uni0174" unicode="&#x0174;" d="M524 0L186 1276L42 1291L42 1456L604 1456L604 1291L448 1268L623 540L657 398L663 397L704 540L993 1456L1200 1456L1498 520L1537 387L1543 387L1578 520L1757 1268L1593 1291L1593 1456L2144 1456L2144 1291L2010 1276L1672 0L1423 0L1139 884L1103 1010L1097 1010L1058 881L771 0L524 0M743 1576L743 1602L996 1844L1191 1844L1443 1600L1443 1576L1229 1576L1093 1721L954 1576L743 1576Z"  horiz-adv-x="2186" vert-adv-y="2048"  />

      
      <glyph glyph-name="uni1E84" unicode="&#x1E84;" d="M524 0L186 1276L42 1291L42 1456L604 1456L604 1291L448 1268L623 540L657 398L663 397L704 540L993 1456L1200 1456L1498 520L1537 387L1543 387L1578 520L1757 1268L1593 1291L1593 1456L2144 1456L2144 1291L2010 1276L1672 0L1423 0L1139 884L1103 1010L1097 1010L1058 881L771 0L524 0M1183 1603L1183 1844L1449 1844L1449 1603L1183 1603M738 1603L738 1844L1003 1844L1003 1603L738 1603Z"  horiz-adv-x="2186" vert-adv-y="2048"  />

      
      <glyph glyph-name="uni1E80" unicode="&#x1E80;" d="M524 0L186 1276L42 1291L42 1456L604 1456L604 1291L448 1268L623 540L657 398L663 397L704 540L993 1456L1200 1456L1498 520L1537 387L1543 387L1578 520L1757 1268L1593 1291L1593 1456L2144 1456L2144 1291L2010 1276L1672 0L1423 0L1139 884L1103 1010L1097 1010L1058 881L771 0L524 0M1257 1572L1249 1572L1041 1572L767 1838L769 1844L1061 1844L1257 1572Z"  horiz-adv-x="2186" vert-adv-y="2048"  />

      
      <glyph glyph-name="uni58" unicode="&#x58;" d="M45 0L45 164L172 188L592 725L198 1266L78 1291L78 1456L626 1456L626 1291L488 1278L753 906L1015 1278L878 1291L878 1456L1421 1456L1421 1291L1291 1266L914 745L1336 189L1472 164L1472 0L912 0L912 164L1040 177L754 569L464 177L589 164L589 0L45 0Z"  horiz-adv-x="1517" vert-adv-y="2048"  />

      
      <glyph glyph-name="uni59" unicode="&#x59;" d="M456 0L456 164L613 194L613 506L178 1271L42 1291L42 1456L606 1456L606 1291L477 1273L733 785L755 740L760 741L782 784L1062 1273L900 1291L900 1456L1453 1456L1453 1291L1313 1271L884 527L884 194L1042 164L1042 0L456 0Z"  horiz-adv-x="1498" vert-adv-y="2048"  />

      
      <glyph glyph-name="unidd" unicode="&#xdd;" d="M456 0L456 164L613 194L613 506L178 1271L42 1291L42 1456L606 1456L606 1291L477 1273L733 785L755 740L760 741L782 784L1062 1273L900 1291L900 1456L1453 1456L1453 1291L1313 1271L884 527L884 194L1042 164L1042 0L456 0M586 1572L782 1844L1074 1844L1076 1838L802 1572L594 1572L586 1572Z"  horiz-adv-x="1498" vert-adv-y="2048"  />

      
      <glyph glyph-name="uni0176" unicode="&#x0176;" d="M456 0L456 164L613 194L613 506L178 1271L42 1291L42 1456L606 1456L606 1291L477 1273L733 785L755 740L760 741L782 784L1062 1273L900 1291L900 1456L1453 1456L1453 1291L1313 1271L884 527L884 194L1042 164L1042 0L456 0M399 1576L399 1602L652 1844L847 1844L1099 1600L1099 1576L885 1576L749 1721L610 1576L399 1576Z"  horiz-adv-x="1498" vert-adv-y="2048"  />

      
      <glyph glyph-name="uni0178" unicode="&#x0178;" d="M456 0L456 164L613 194L613 506L178 1271L42 1291L42 1456L606 1456L606 1291L477 1273L733 785L755 740L760 741L782 784L1062 1273L900 1291L900 1456L1453 1456L1453 1291L1313 1271L884 527L884 194L1042 164L1042 0L456 0M839 1603L839 1844L1105 1844L1105 1603L839 1603M394 1603L394 1844L659 1844L659 1603L394 1603Z"  horiz-adv-x="1498" vert-adv-y="2048"  />

      
      <glyph glyph-name="uni1EF4" unicode="&#x1EF4;" d="M456 0L456 164L613 194L613 506L178 1271L42 1291L42 1456L606 1456L606 1291L477 1273L733 785L755 740L760 741L782 784L1062 1273L900 1291L900 1456L1453 1456L1453 1291L1313 1271L884 527L884 194L1042 164L1042 0L456 0M608-407L608-166L890-166L890-407L608-407Z"  horiz-adv-x="1498" vert-adv-y="2048"  />

      
      <glyph glyph-name="uni1EF2" unicode="&#x1EF2;" d="M456 0L456 164L613 194L613 506L178 1271L42 1291L42 1456L606 1456L606 1291L477 1273L733 785L755 740L760 741L782 784L1062 1273L900 1291L900 1456L1453 1456L1453 1291L1313 1271L884 527L884 194L1042 164L1042 0L456 0M913 1572L905 1572L697 1572L423 1838L425 1844L717 1844L913 1572Z"  horiz-adv-x="1498" vert-adv-y="2048"  />

      
      <glyph glyph-name="uni1EF6" unicode="&#x1EF6;" d="M456 0L456 164L613 194L613 506L178 1271L42 1291L42 1456L606 1456L606 1291L477 1273L733 785L755 740L760 741L782 784L1062 1273L900 1291L900 1456L1453 1456L1453 1291L1313 1271L884 527L884 194L1042 164L1042 0L456 0M623 1538L611 1677Q685 1680 717 1695Q749 1710 749 1744Q749 1779 710 1795.50Q671 1812 603 1812L610 1939Q787 1939 881.50 1888Q976 1837 976 1749Q976 1684 932.50 1648Q889 1612 826 1603L825 1538L623 1538Z"  horiz-adv-x="1498" vert-adv-y="2048"  />

      
      <glyph glyph-name="uni1EF8" unicode="&#x1EF8;" d="M456 0L456 164L613 194L613 506L178 1271L42 1291L42 1456L606 1456L606 1291L477 1273L733 785L755 740L760 741L782 784L1062 1273L900 1291L900 1456L1453 1456L1453 1291L1313 1271L884 527L884 194L1042 164L1042 0L456 0M523 1572L381 1608Q381 1675 412 1731Q443 1787 494 1821Q545 1855 605 1855Q653 1855 704.50 1831Q756 1807 803 1782.50Q850 1758 884 1758Q925 1759 950.50 1790Q976 1821 976 1868L1118 1829Q1118 1761 1087.50 1705Q1057 1649 1006 1616Q955 1583 894 1583Q842 1583 790.50 1607.50Q739 1632 693.50 1656.50Q648 1681 614 1681Q573 1681 548 1649Q523 1617 523 1572Z"  horiz-adv-x="1498" vert-adv-y="2048"  />

      
      <glyph glyph-name="uni5a" unicode="&#x5a;" d="M77 0L77 183L797 1246L328 1246L306 1059L97 1059L106 1456L1129 1456L1129 1279L406 209L936 209L959 399L1167 399L1153 0L77 0Z"  horiz-adv-x="1220" vert-adv-y="2048"  />

      
      <glyph glyph-name="uni0179" unicode="&#x0179;" d="M77 0L77 183L797 1246L328 1246L306 1059L97 1059L106 1456L1129 1456L1129 1279L406 209L936 209L959 399L1167 399L1153 0L77 0M440 1572L636 1844L928 1844L930 1838L656 1572L448 1572L440 1572Z"  horiz-adv-x="1220" vert-adv-y="2048"  />

      
      <glyph glyph-name="uni017D" unicode="&#x017D;" d="M77 0L77 183L797 1246L328 1246L306 1059L97 1059L106 1456L1129 1456L1129 1279L406 209L936 209L959 399L1167 399L1153 0L77 0M953 1844L953 1818L700 1576L505 1576L253 1820L253 1844L467 1844L603 1699L742 1844L953 1844Z"  horiz-adv-x="1220" vert-adv-y="2048"  />

      
      <glyph glyph-name="uni017B" unicode="&#x017B;" d="M77 0L77 183L797 1246L328 1246L306 1059L97 1059L106 1456L1129 1456L1129 1279L406 209L936 209L959 399L1167 399L1153 0L77 0M462 1603L462 1844L744 1844L744 1603L462 1603Z"  horiz-adv-x="1220" vert-adv-y="2048"  />

      
      <glyph glyph-name="uni61" unicode="&#x61;" d="M425-21Q262-21 168.50 64.50Q75 150 75 299Q75 401 130.50 478.50Q186 556 294.50 599.50Q403 643 559 643L713 643L713 728Q713 810 664.50 860Q616 910 522 910Q471 910 430.50 897.50Q390 885 358 862L335 717L137 717L135 991Q217 1041 315.50 1071.50Q414 1102 535 1102Q744 1102 864.50 1004.50Q985 907 985 725L985 264Q985 242 985.50 221Q986 200 989 180L1100 164L1100 0L755 0Q744 31 734.50 63.50Q725 96 721 129Q668 62 594.50 20.50Q521-21 425-21M492 184Q561 184 621.50 216Q682 248 713 297L713 473L558 473Q453 473 399.50 424.50Q346 376 346 310Q346 250 384 217Q422 184 492 184Z"  horiz-adv-x="1149" vert-adv-y="2048"  />

      
      <glyph glyph-name="unie1" unicode="&#xe1;" d="M425-21Q262-21 168.50 64.50Q75 150 75 299Q75 401 130.50 478.50Q186 556 294.50 599.50Q403 643 559 643L713 643L713 728Q713 810 664.50 860Q616 910 522 910Q471 910 430.50 897.50Q390 885 358 862L335 717L137 717L135 991Q217 1041 315.50 1071.50Q414 1102 535 1102Q744 1102 864.50 1004.50Q985 907 985 725L985 264Q985 242 985.50 221Q986 200 989 180L1100 164L1100 0L755 0Q744 31 734.50 63.50Q725 96 721 129Q668 62 594.50 20.50Q521-21 425-21M492 184Q561 184 621.50 216Q682 248 713 297L713 473L558 473Q453 473 399.50 424.50Q346 376 346 310Q346 250 384 217Q422 184 492 184M381 1288L577 1560L869 1560L871 1554L597 1288L389 1288L381 1288Z"  horiz-adv-x="1149" vert-adv-y="2048"  />

      
      <glyph glyph-name="uni0103" unicode="&#x0103;" d="M425-21Q262-21 168.50 64.50Q75 150 75 299Q75 401 130.50 478.50Q186 556 294.50 599.50Q403 643 559 643L713 643L713 728Q713 810 664.50 860Q616 910 522 910Q471 910 430.50 897.50Q390 885 358 862L335 717L137 717L135 991Q217 1041 315.50 1071.50Q414 1102 535 1102Q744 1102 864.50 1004.50Q985 907 985 725L985 264Q985 242 985.50 221Q986 200 989 180L1100 164L1100 0L755 0Q744 31 734.50 63.50Q725 96 721 129Q668 62 594.50 20.50Q521-21 425-21M492 184Q561 184 621.50 216Q682 248 713 297L713 473L558 473Q453 473 399.50 424.50Q346 376 346 310Q346 250 384 217Q422 184 492 184M545 1265Q387 1265 294.50 1346Q202 1427 205 1554L207 1560L395 1560Q395 1499 431 1459.50Q467 1420 545 1420Q620 1420 656.50 1459Q693 1498 693 1560L881 1560L883 1554Q885 1427 793.50 1346Q702 1265 545 1265Z"  horiz-adv-x="1149" vert-adv-y="2048"  />

      
      </font>
</defs>
</svg>
