<svg width="17.000000" height="14.000000" viewBox="0 0 17 14" fill="none" xmlns="http://www.w3.org/2000/svg" xmlns:xlink="http://www.w3.org/1999/xlink">
	<desc>
			Created with Pixso.
	</desc>
	<defs/>
	<path id="Vector" d="M14.75 3.16L8.09 7.33L1.42 3.16L1.42 1.5L8.09 5.66L14.75 1.5L14.75 3.16ZM14.75 -0.17L1.42 -0.17C0.49 -0.17 -0.25 0.57 -0.25 1.5L-0.25 11.5C-0.25 11.94 -0.07 12.36 0.24 12.67C0.55 12.99 0.98 13.16 1.42 13.16L14.75 13.16C15.19 13.16 15.62 12.99 15.93 12.67C16.24 12.36 16.42 11.94 16.42 11.5L16.42 1.5C16.42 0.57 15.67 -0.17 14.75 -0.17Z" fill="#000000" fill-opacity="1.000000" fill-rule="nonzero"/>
</svg>
