<svg width="18.000000" height="18.000000" viewBox="0 0 18 18" fill="none" xmlns="http://www.w3.org/2000/svg" xmlns:xlink="http://www.w3.org/1999/xlink">
	<desc>
			Created with Pixso.
	</desc>
	<defs>
		<clipPath id="clip2_381">
			<rect id="SVG" width="18.000000" height="18.000000" transform="translate(-0.520020 -0.750000)" fill="white" fill-opacity="0"/>
		</clipPath>
	</defs>
	<g clip-path="url(#clip2_381)">
		<path id="Vector" d="M8.47 0.75C4.33 0.75 0.97 4.11 0.97 8.25C0.97 12.38 4.33 15.75 8.47 15.75C12.62 15.75 15.98 12.38 15.98 8.25C15.98 4.11 12.62 0.75 8.47 0.75ZM13.66 5.25L11.45 5.25C11.21 4.31 10.87 3.41 10.42 2.58C11.8 3.05 12.95 4.01 13.66 5.25ZM8.47 2.28C9.1 3.17 9.58 4.17 9.91 5.25L7.04 5.25C7.37 4.17 7.85 3.17 8.47 2.28ZM2.67 9.75C2.55 9.27 2.47 8.76 2.47 8.25C2.47 7.73 2.55 7.22 2.67 6.75L5.2 6.75C5.14 7.24 5.1 7.73 5.1 8.25C5.1 8.76 5.14 9.25 5.2 9.75L2.67 9.75ZM3.29 11.25L5.5 11.25C5.74 12.18 6.08 13.08 6.53 13.91C5.15 13.44 4 12.49 3.29 11.25ZM5.5 5.25L3.29 5.25C4 4 5.15 3.05 6.53 2.58C6.08 3.41 5.74 4.31 5.5 5.25ZM8.47 14.22C7.85 13.32 7.37 12.32 7.04 11.25L9.91 11.25C9.58 12.32 9.1 13.32 8.47 14.22ZM10.23 9.75L6.72 9.75C6.65 9.25 6.6 8.76 6.6 8.25C6.6 7.73 6.65 7.23 6.72 6.75L10.23 6.75C10.3 7.23 10.35 7.73 10.35 8.25C10.35 8.76 10.3 9.25 10.23 9.75ZM10.42 13.91C10.87 13.08 11.21 12.18 11.45 11.25L13.66 11.25C12.95 12.48 11.8 13.44 10.42 13.91ZM11.75 9.75C11.81 9.25 11.85 8.76 11.85 8.25C11.85 7.73 11.81 7.24 11.75 6.75L14.28 6.75C14.4 7.22 14.48 7.73 14.48 8.25C14.48 8.76 14.4 9.27 14.28 9.75L11.75 9.75Z" fill="#FFFFFF" fill-opacity="1.000000" fill-rule="nonzero"/>
	</g>
</svg>
