<svg width="11.000000" height="16.000000" viewBox="0 0 11 16" fill="none" xmlns="http://www.w3.org/2000/svg" xmlns:xlink="http://www.w3.org/1999/xlink">
	<desc>
			Created with Pixso.
	</desc>
	<defs/>
	<path id="Vector" d="M5 7.08C4.44 7.08 3.91 6.86 3.52 6.47C3.13 6.08 2.91 5.55 2.91 5C2.91 4.44 3.13 3.91 3.52 3.52C3.91 3.13 4.44 2.91 5 2.91C5.55 2.91 6.08 3.13 6.47 3.52C6.86 3.91 7.08 4.44 7.08 5C7.08 5.27 7.02 5.54 6.92 5.79C6.82 6.04 6.66 6.27 6.47 6.47C6.27 6.66 6.05 6.81 5.79 6.92C5.54 7.02 5.27 7.08 5 7.08ZM5 -0.84C3.45 -0.84 1.96 -0.22 0.87 0.87C-0.22 1.96 -0.84 3.45 -0.84 5C-0.84 9.37 5 15.83 5 15.83C5 15.83 10.83 9.37 10.83 5C10.83 3.45 10.21 1.96 9.12 0.87C8.03 -0.22 6.54 -0.84 5 -0.84Z" fill="#FFFFFF" fill-opacity="1.000000" fill-rule="nonzero"/>
</svg>
