<svg width="15.000000" height="15.000000" viewBox="0 0 15 15" fill="none" xmlns="http://www.w3.org/2000/svg" xmlns:xlink="http://www.w3.org/1999/xlink">
	<desc>
			Created with Pixso.
	</desc>
	<defs/>
	<path id="Vector" d="M2.2 6.49C3.4 8.85 5.33 10.78 7.69 11.98L9.53 10.14C9.76 9.91 10.08 9.85 10.38 9.94C11.31 10.25 12.31 10.41 13.35 10.41C13.57 10.41 13.78 10.5 13.94 10.66C14.1 10.81 14.18 11.02 14.18 11.25L14.18 14.16C14.18 14.38 14.1 14.59 13.94 14.75C13.78 14.91 13.57 15 13.35 15C9.59 15 5.99 13.5 3.33 10.85C0.68 8.19 -0.82 4.59 -0.82 0.83C-0.82 0.61 -0.73 0.4 -0.57 0.24C-0.41 0.08 -0.2 0 0.02 0L2.93 0C3.16 0 3.37 0.08 3.52 0.24C3.68 0.4 3.77 0.61 3.77 0.83C3.77 1.87 3.93 2.87 4.24 3.8C4.33 4.1 4.27 4.42 4.04 4.65L2.2 6.49Z" fill="#000000" fill-opacity="1.000000" fill-rule="nonzero"/>
</svg>
