<svg width="15.000000" height="15.000000" viewBox="0 0 15 15" fill="none" xmlns="http://www.w3.org/2000/svg" xmlns:xlink="http://www.w3.org/1999/xlink">
	<desc>
			Created with Pixso.
	</desc>
	<defs/>
	<path id="Vector" d="M4.91 -0.5C6.35 -0.5 7.73 0.07 8.74 1.08C9.76 2.1 10.33 3.47 10.33 4.91C10.33 6.25 9.84 7.49 9.03 8.44L9.25 8.66L9.91 8.66L14.08 12.83L12.83 14.08L8.66 9.91L8.66 9.25L8.44 9.03C7.49 9.84 6.25 10.33 4.91 10.33C3.47 10.33 2.1 9.76 1.08 8.74C0.07 7.73 -0.5 6.35 -0.5 4.91C-0.5 3.47 0.07 2.1 1.08 1.08C2.1 0.07 3.47 -0.5 4.91 -0.5ZM4.91 1.16C2.83 1.16 1.16 2.83 1.16 4.91C1.16 7 2.83 8.66 4.91 8.66C7 8.66 8.66 7 8.66 4.91C8.66 2.83 7 1.16 4.91 1.16Z" fill="#7F7F7F" fill-opacity="1.000000" fill-rule="nonzero"/>
</svg>
